<svg xmlns="http://www.w3.org/2000/svg" viewBox="0 0 290.44 135.58"><title>Asset 3</title><path d="M217.62 108.25c0 .25.21.39.2.72l-2.44-2a22.78 22.78 0 0 1-2.55-2.29 2.16 2.16 0 0 0 .6 1.61c.48.73 1 1.4 1.51 2.13a7.62 7.62 0 0 1 1.32 4.29c0 1-.41 1.29-1.37.88a5.52 5.52 0 0 1-3.11-4.09 4.14 4.14 0 0 1-.15-2.23 3.82 3.82 0 0 0-1.11 1.81 3.5 3.5 0 0 1-.84 1.33 1.6 1.6 0 0 1-2.56-.2 3.5 3.5 0 0 1-.38-3.84c.14-.31.34-.58.56-1a3.72 3.72 0 0 0-1.34.26 2.32 2.32 0 0 1-2.67-3.29 4.8 4.8 0 0 1 1.52-2 1.38 1.38 0 0 1 1.17-.34c1 .22 2.06.08 3 .62a.42.42 0 0 0 .5-.06 15.23 15.23 0 0 1-.69-3.58 3.28 3.28 0 0 1 1.05-2.77 1.5 1.5 0 0 1 2.51.26 4.22 4.22 0 0 1 .94 3.29 1.66 1.66 0 0 0 .16 1.28c.34-.51.65-.93.93-1.37a10.21 10.21 0 0 1 2.62-2.46 1.46 1.46 0 0 1 1.49-.31 1.44 1.44 0 0 1 .71 1.45 3.08 3.08 0 0 1-.86 2.39l-1 1c.56.17.94-.31 1.36-.16a5.43 5.43 0 0 0 1.33.28c.35 0 .51 0 .62-.45a1.18 1.18 0 0 1 1.49-.85 2 2 0 0 1 1.51 1.77 1 1 0 0 1-1.11 1.11c-.62 0-1.21 0-1.53-.73-.24-.56-.8-.46-1.26-.5a.32.32 0 0 0-.16.31c0 .5-.08.92-.62 1.06s-.84-.24-1.05-.65c-.13-.26-.23-.49-.58-.39-1.16.34-2.39.36-3.52.77 0 .41.26.36.45.4 1 .18 1.94.41 2.91.51a14.88 14.88 0 0 1 5 1.49c.36.18.62.37.93-.12s.75-.26 1.1 0 .83.61.73 1.18a.87.87 0 0 1-1.48.29c-1.05-1.16-2.48-1.36-3.91-1.72-.08.39.39.5.41.84a.84.84 0 0 1-.32.9.69.69 0 0 1-.85-.08c-.65-.55-1-.8-.46-1.94a20.47 20.47 0 0 0-4.79-.61 21 21 0 0 0 2.42 1.73 17.68 17.68 0 0 0 4 2.34 1.65 1.65 0 0 0 1.08.17 1.36 1.36 0 0 1 1.61 1.06.9.9 0 0 1-.56 1.1c-.47.13-1.37-.25-1.39-.71 0-1.26-.94-1.35-1.81-1.56l-.54-.21a23.71 23.71 0 0 0-5.32-3.15c.29 1.38 2.35 3.64 4.67 5.11zm-6.53-5.85a5.16 5.16 0 0 0-2 .07 6.55 6.55 0 0 1-1.23.19 10.18 10.18 0 0 0-3.46.58c-.8.24-.91.66-.32 1.28a1.64 1.64 0 0 0 1.63.54 7 7 0 0 0 2.29-1 8.36 8.36 0 0 1 2.55-1.23.64.64 0 0 0 .54-.43zm.2 1.27a2 2 0 0 0-.52 0 6.26 6.26 0 0 0-3.59 3.42 2.11 2.11 0 0 0 .73 2.82 36.6 36.6 0 0 1 3.38-6.24zm.31-2.22a36.71 36.71 0 0 1-1.08-6.8c-1.83 1.58-1.2 5.98 1.08 6.8zm.1-6.68a2.23 2.23 0 0 0-.38 1.73c.11.82.16 1.65.27 2.47a3.27 3.27 0 0 0 .7 1.94 3 3 0 0 0 .37-1.27 12.1 12.1 0 0 1 .1-1.91c.24-1.24-.4-2.07-1.06-2.96zm-2 6.88a15.93 15.93 0 0 0-3.07-.79c-1.4-.15-1.83.07-2.59 1.76 1.96-.76 3.85-.44 5.67-.97zm4-1.8c1.1-.48 4.19-3.65 4.4-4.49-2.1.77-3.21 2.54-4.36 4.49zm1.12 12.85a15.85 15.85 0 0 1-2.53-6.47c-.59 2.31.71 6.11 2.57 6.47zm-3.71-7.64a15.3 15.3 0 0 0-1.09 1.58c-.5.92-.92 1.89-1.36 2.84-.09.2-.17.48 0 .64s.48-.08.69-.22a.82.82 0 0 0 .19-.28 10.53 10.53 0 0 0 1.61-4.56zm4.4 7.15c.09-1.7-1.18-4.19-2.37-4.81a10.24 10.24 0 0 0 2.41 4.81zm-.14-12.68a3.08 3.08 0 0 0 3-3.17 38.3 38.3 0 0 1-2.96 3.17z" fill="#fff" stroke="#fff" stroke-miterlimit="10" stroke-width=".25" fill-rule="evenodd"/><path d="M218.71 109.58a1.47 1.47 0 0 1 1.52.92 1.13 1.13 0 0 1-.87 1.26 1 1 0 0 1-1.22-.73c-.14-.43.29-1.4.57-1.45zM218.33 106.32l.54.21a1 1 0 0 1 .42.86.88.88 0 0 1-1.13 1c-.18 0-.34-.15-.54-.09h.06c-.68-1.16-.46-1.69.65-1.98zM77.49 108c-.25 0-.35.27-.68.32.53-.92 1.06-1.82 1.58-2.74a24.79 24.79 0 0 1 1.85-2.89 2.17 2.17 0 0 0-1.49.85c-.64.6-1.21 1.26-1.86 1.84a7.54 7.54 0 0 1-4 2c-1 .16-1.34-.19-1.09-1.2a5.5 5.5 0 0 1 3.52-3.74 4.28 4.28 0 0 1 2.18-.52 4 4 0 0 0-2-.8 3.54 3.54 0 0 1-1.46-.6 1.6 1.6 0 0 1-.19-2.52 3.52 3.52 0 0 1 3.74-1 9.37 9.37 0 0 1 1 .39 3.75 3.75 0 0 0-.48-1.28A2.32 2.32 0 0 1 81 92.94a4.67 4.67 0 0 1 2.18 1.18 1.35 1.35 0 0 1 .52 1.09c0 1 .26 2.05-.12 3.05a.42.42 0 0 0 .14.49 15.92 15.92 0 0 1 3.42-1.27 3.31 3.31 0 0 1 2.9.58 1.51 1.51 0 0 1 .16 2.53 4.23 4.23 0 0 1-3.09 1.46 1.69 1.69 0 0 0-1.24.36c.55.26 1 .5 1.5.71a9.58 9.58 0 0 1 2.91 2.14 1.42 1.42 0 0 1 .55 1.41c-.17.65-.76.84-1.31.94a3.13 3.13 0 0 1-2.5-.46l-1.12-.79c-.07.57.46.87.38 1.31a5.1 5.1 0 0 0-.06 1.35c0 .35.13.5.54.55a1.19 1.19 0 0 1 1.09 1.33 2.05 2.05 0 0 1-1.51 1.78 1 1 0 0 1-1.27-.92c-.09-.61-.18-1.2.47-1.63s.32-.87.28-1.32a.31.31 0 0 0-.32-.11.88.88 0 0 1-1.16-.44c-.24-.54.1-.87.48-1.14s.44-.31.29-.63c-.52-1.1-.75-2.31-1.34-3.36-.41 0-.31.32-.32.52 0 1-.08 2 0 2.95a14.52 14.52 0 0 1-.66 5.16c-.11.38-.26.67.28.89s.37.7.2 1.09-.46.91-1 .91a.88.88 0 0 1-.52-1.42c1-1.22.94-2.66 1.07-4.14-.4 0-.44.47-.77.55s-.67.13-.94-.17a.69.69 0 0 1-.06-.85c.44-.74.63-1.14 1.84-.77a20.88 20.88 0 0 0-.18-4.83 21.25 21.25 0 0 0-1.31 2.67 17.69 17.69 0 0 0-1.78 4.31 1.58 1.58 0 0 0 0 1.09 1.38 1.38 0 0 1-.79 1.76.91.91 0 0 1-1.18-.37c-.2-.44 0-1.4.47-1.49 1.24-.23 1.19-1.15 1.25-2l.12-.56a24 24 0 0 0 2.24-5.76c-1.31.5-3.21 2.9-4.28 5.43zm4.71-7.39a5.2 5.2 0 0 0-.39-1.94 6.52 6.52 0 0 1-.39-1.18 10.22 10.22 0 0 0-1.14-3.32c-.36-.75-.8-.79-1.31-.11a1.63 1.63 0 0 0-.27 1.7 7.23 7.23 0 0 0 1.3 2.13 8.34 8.34 0 0 1 1.63 2.31.67.67 0 0 0 .57.44zM81 101c0-.3 0-.42-.07-.5a6.3 6.3 0 0 0-4-3 2.1 2.1 0 0 0-2.66 1.18A36.87 36.87 0 0 1 81 101zm2.23 0a36.07 36.07 0 0 1 6.54-2.17c-1.87-1.57-6.11-.23-6.56 2.17zm6.61-1a2.21 2.21 0 0 0-1.76-.09c-.8.25-1.61.42-2.4.67a3.29 3.29 0 0 0-1.8 1 2.93 2.93 0 0 0 1.31.16 11.39 11.39 0 0 1 1.91-.21c1.24.05 1.95-.74 2.72-1.53zm-7.11-.84A15.38 15.38 0 0 0 83 96c-.08-1.42-.37-1.81-2.15-2.28 1.05 1.79 1.05 3.72 1.86 5.43zm2.43 3.68c.66 1 4.29 3.55 5.15 3.62-1.14-2.06-3.05-2.81-5.17-3.63zM72.65 106a15.89 15.89 0 0 1 6-3.55c-2.41-.22-5.95 1.67-6 3.55zm6.93-4.91a16 16 0 0 0-1.73-.81c-1-.34-2-.6-3-.88-.21-.06-.5-.09-.62.13s.15.47.33.64a.61.61 0 0 0 .3.15 10.53 10.53 0 0 0 4.72.8zm-6.34 5.51c1.7-.18 3.94-1.84 4.36-3.12a10.31 10.31 0 0 0-4.36 3.15zm12.5-2.2a3.06 3.06 0 0 0 3.61 2.47 35.15 35.15 0 0 1-3.61-2.44z" fill="#fff" stroke="#fff" stroke-miterlimit="10" stroke-width=".25" fill-rule="evenodd"/><path d="M76.36 109.32a1.47 1.47 0 0 1-.67 1.65 1.13 1.13 0 0 1-1.38-.65 1 1 0 0 1 .52-1.33c.41-.16 1.43.06 1.53.33zM79.51 108.42l-.12.56a1 1 0 0 1-.78.56.89.89 0 0 1-1.12-1c0-.18.09-.36 0-.54v.06c1-.78 1.51-.69 2.02.36zM232.63 74.62a2.44 2.44 0 0 0-.57-2.9 3 3 0 0 0-2.75-1.08 3.38 3.38 0 0 0-2.7 2.17 1.38 1.38 0 0 0 .28 1.46 1.72 1.72 0 0 0 1.73.76 2.36 2.36 0 0 0 1.38-1.09 1 1 0 0 0-1.71-1 .3.3 0 0 0-.06.37.33.33 0 0 0 .45.14 3.13 3.13 0 0 1 .34-.21.32.32 0 0 1 .28.05.3.3 0 0 1 .09.38 1.23 1.23 0 0 1-1 .77c-.52.11-.85-.24-1.11-.65a1 1 0 0 1 .09-1.16 3.47 3.47 0 0 1 2.06-1.36 2.41 2.41 0 0 1 2.33 1 1.94 1.94 0 0 1 .39 2.15 4 4 0 0 1-1.28 1.78 4.33 4.33 0 0 1-.91.53 5.35 5.35 0 0 1-1.08.28c-1.21.17-2.38.4-3.54.66l-1.73.41-1.77.4a6.48 6.48 0 0 1 1-1c.35-.31.68-.62 1-.93a3.26 3.26 0 0 0 1-1.83 12.13 12.13 0 0 0 .25-3.24 38.5 38.5 0 0 1-.16-5.12 5.55 5.55 0 0 1 .54-2.44 10.2 10.2 0 0 1 1.86-3.14c.15-.13.26-.31.06-.5s-.36-.07-.53 0c-.94.56-1.9 1.07-2.81 1.63-.46.31-.93.6-1.36.94a8.54 8.54 0 0 0-1.19 1.14 4.22 4.22 0 0 0-.81 3.91 26.8 26.8 0 0 0 1.01 3.1 6 6 0 0 1 .23 3.94 10.32 10.32 0 0 1-1.2 2.7 7.46 7.46 0 0 1-2 2.14c-.36.24-.66.56-1 .81-.18.12-.32.35-.6.25 0 0-.06-.08-.05-.1.13-.34.24-.69.39-1a8.27 8.27 0 0 0 .06-5.49 7.77 7.77 0 0 0-2.93-4.29 4.83 4.83 0 0 1-1.95-4.44 7.75 7.75 0 0 1 .14-1.52.42.42 0 0 0-.12-.46.34.34 0 0 0-.49.06 1.53 1.53 0 0 0-.18.18 14.11 14.11 0 0 0-1.85 2.63 5.25 5.25 0 0 0-.27 3.35 6.39 6.39 0 0 0 1.75 3.24 39.86 39.86 0 0 1 3.27 3.23 4.71 4.71 0 0 1 .52 5.75 9.42 9.42 0 0 1-3.42 3.19 1.94 1.94 0 0 0-.85 1c-.08.2-.2.37 0 .57a.59.59 0 0 0 .75.17 3.56 3.56 0 0 0 .31-.26 12.88 12.88 0 0 0 1.43-1.23l.66-.66.7-.76c.41-.4.69-.94 1.25-1.15a4.82 4.82 0 0 1 3.56 0 1.84 1.84 0 0 1 1.3 1.88 8.26 8.26 0 0 1-1 3.1 8.69 8.69 0 0 1-3.42 3.33c-2 1-3.34 2.76-4.92 4.26a.45.45 0 0 0-.07.67c.23.24.46.08.64-.12a8 8 0 0 1 2.1-1.54 19 19 0 0 1 2.37-1 19.94 19.94 0 0 0 2.43-1.13 23.78 23.78 0 0 0 2.22-1.48 7.94 7.94 0 0 0 3.2-4.82 2.86 2.86 0 0 0-.36-2.34 7.17 7.17 0 0 0-4.14-3c-.2-.07-.48 0-.59-.26a2.38 2.38 0 0 1 1.06-.61 2.94 2.94 0 0 1 3.85 1.31 22.11 22.11 0 0 1 1.13 2.29 6.59 6.59 0 0 0 5.63 4.1 16.25 16.25 0 0 0 4.71-.6 9.78 9.78 0 0 0 2.28-.91 14.41 14.41 0 0 1 2.19-1.09.46.46 0 0 0 .32-.54c-.1-.33-.4-.32-.63-.21-1.4.68-2.83.45-4.28.6a4.24 4.24 0 0 1-1.92-.36 12.14 12.14 0 0 1-3.17-2.17 25 25 0 0 0-5-3.23c-.44-.21-.93-.32-1.5-.52 2.19-.87 4.44-.89 6.68-1.12h2.86a11.91 11.91 0 0 1 4.15.53 6.44 6.44 0 0 1 2.45 1.33 9.15 9.15 0 0 1 2.66 4 7.71 7.71 0 0 0 2 3.25 23.8 23.8 0 0 1 2 1.63 1.06 1.06 0 0 0 1.15.23 5.53 5.53 0 0 1-1-2 19.63 19.63 0 0 1-.42-2.29 8.65 8.65 0 0 0-5.5-7c-.21-.09-.51 0-.57-.45a23.69 23.69 0 0 0 5.26-1.2 13 13 0 0 1 3.66-.85 2.32 2.32 0 0 1 2.74 1.48 2.45 2.45 0 0 1-2.2 3.35 3.63 3.63 0 0 1-1.69-.4c-.7-.35-1-.8-.88-1.32a1.88 1.88 0 0 1 1.41-1.18c.35-.09.73-.13.83.25s-.13.64-.53.72-.38.21-.3.49a.42.42 0 0 0 .52.27 2.16 2.16 0 0 0 1.12-1.51 1.07 1.07 0 0 0-1.31-1 3.06 3.06 0 0 0-1.52.72A2.17 2.17 0 0 0 247 78a1.74 1.74 0 0 0 .92 1.42 4.61 4.61 0 0 0 1.65.56 3.13 3.13 0 0 0 2.55-.88 2.82 2.82 0 0 0 1-2.37 3 3 0 0 0-3.43-2.87c-.47 0-1 .24-1.42.06a.75.75 0 0 1 .36-.45 7.51 7.51 0 0 1 2.93-1.29 5.67 5.67 0 0 1 3.06.21 6.22 6.22 0 0 0 5.22-.69c.77-.41 1.52-.84 2.28-1.23s1.55-.77 2.34-1.11c.33-.15.64-.33 1-.48s.39-.31.3-.57-.34-.2-.57-.1a5.2 5.2 0 0 0-.53.26 8.45 8.45 0 0 1-3.64.94 16.45 16.45 0 0 1-2.63-.06 10.58 10.58 0 0 0-6.57 1.5 1.33 1.33 0 0 1-1 .32c.06-.2.1-.35.15-.49s.12-.28.18-.42a16.48 16.48 0 0 1 4.46-5.93c.81-.72 1.66-1.38 2.52-2l.63-.51.61-.54q.6-.55 1.17-1.14c.53-.56.84-1.3 1.49-1.73.27-.18.56-.35.36-.71s-.55-.16-.84 0a3.84 3.84 0 0 1-1.68.55 7.36 7.36 0 0 0-2.54.67 12.49 12.49 0 0 0-1.84 1.22 9.55 9.55 0 0 0-1.5 1.48 10.45 10.45 0 0 0-1.15 1.76 20.6 20.6 0 0 0-.87 2 21.07 21.07 0 0 0-1.63 5 2 2 0 0 1-.37.82 10.79 10.79 0 0 1-5.15 4c-.25.09-.52.26-.81.11.09-.28.33-.31.52-.41a7.87 7.87 0 0 0 3.74-4.94 13 13 0 0 0 .08-3.94 6 6 0 0 1 .3-2.39 4.15 4.15 0 0 1 .56-1 4.32 4.32 0 0 1 .85-.93 1.43 1.43 0 0 0 .28-.32.32.32 0 0 0 0-.4.33.33 0 0 0-.29-.06 1.28 1.28 0 0 0-.54.32 4.78 4.78 0 0 1-1.32 1.09 5.34 5.34 0 0 0-1.25 1.17 10 10 0 0 0-1.94 5.4 13.24 13.24 0 0 1-.82 3.6 4.19 4.19 0 0 1-.7 1.25 5.28 5.28 0 0 1-1 .86 16 16 0 0 1-2.53 1.22 1.91 1.91 0 0 1 .6-.84 2.88 2.88 0 0 0 .62-3.19c-.23-.55-.53-1-1.21-1a1.94 1.94 0 0 0-1.7.94 1.25 1.25 0 0 0 .14 1.4 1.08 1.08 0 0 0 1.19.24.41.41 0 0 0 .32-.49.36.36 0 0 0-.44-.23 1.54 1.54 0 0 1-.42.07.28.28 0 0 1-.27-.28c0-.52.34-.74.75-.91s.66-.2.93.21a2.47 2.47 0 0 1-.61 3.2 7.32 7.32 0 0 1-3 1.35c-.22 0-.48.18-.69-.12a5 5 0 0 0 1-2.89 8.92 8.92 0 0 0-.45-3 17.89 17.89 0 0 0-2.13-3.79 9.34 9.34 0 0 1-1.58-5.77 1.87 1.87 0 0 0-.16-1.27 2.07 2.07 0 0 0-.53 1 1.87 1.87 0 0 1-.4.88 3.9 3.9 0 0 0-.72 1.27 8.05 8.05 0 0 0-.4 1.4 5.49 5.49 0 0 0 1.29 4.95c.33.38.64.77 1 1.15a13.25 13.25 0 0 1 1.52 2.46 1.46 1.46 0 0 1 0 1.32 4 4 0 0 1-2.35 2c-.11-.58.22-.89.38-1.27zm-8.54-11.27c-.55 1.83-1.28 3.64-1.1 5.81.07 1.17 0 2.34.13 3.55a5.67 5.67 0 0 1-1.12 4.11 4.48 4.48 0 0 1 .34-1.49 6.21 6.21 0 0 0-.25-4.63c-.27-.68-.55-1.36-.77-2a6.79 6.79 0 0 1-.34-1.59 4.52 4.52 0 0 1 .08-1.39 4 4 0 0 1 1.56-2.23 11.13 11.13 0 0 1 1.9-1.24c.14.52-.31.75-.43 1.1zm-8.33 11.7a11.56 11.56 0 0 0-.82-1.24 23.41 23.41 0 0 1-2.76-4.43 3.55 3.55 0 0 1-.41-1.59v-2.34a.82.82 0 0 1 .29.7 6.18 6.18 0 0 0 2.37 4.38c2.69 2 2.91 4.68 2.8 7.55a26 26 0 0 0-1.47-3.03zm10.14 7.58a14.49 14.49 0 0 0-1.6-3 2.8 2.8 0 0 1 1.87 1 7.72 7.72 0 0 1 1.06 1.37 8.43 8.43 0 0 0 6.18 4.16 7.66 7.66 0 0 1 1 .21l.12.15a6.87 6.87 0 0 1-5.28-.18 6.61 6.61 0 0 1-3.35-3.71zm-14.66-15.55a4.41 4.41 0 0 0 .54 2.65 32 32 0 0 0 3 4.76 12.09 12.09 0 0 1 .93 1.78c-1.27-1.28-2.55-2.53-3.9-3.73a5.46 5.46 0 0 1-1.58-3.05 3.71 3.71 0 0 1 .39-2.87c.2-.23.25-.61.54-.81a2.41 2.41 0 0 1 .08 1.27zm8 24.13a17.61 17.61 0 0 0 3.39-4.52 4.56 4.56 0 0 0 .27-2.63 2 2 0 0 0-1-1.57.92.92 0 0 1-.52-.69 6.77 6.77 0 0 1 2.55 2.2 2.33 2.33 0 0 1 .27 1.75 8.82 8.82 0 0 1-.52 1.65 6.91 6.91 0 0 1-.84 1.41A8.5 8.5 0 0 1 220.3 91a10.61 10.61 0 0 0-1 .67c-.32.24-.65.46-1 .69l-.16-.22c.39-.32.75-.6 1.07-.93zm16.06-5.3a9.71 9.71 0 0 1-5.3-1.63 8.93 8.93 0 0 1-1.53-1.48c-.69-.84-1.27-1.76-2-2.61a5.67 5.67 0 0 1 1.76.91 40.61 40.61 0 0 1 3.61 2.81 6.46 6.46 0 0 0 4.3 1.53c.15 0 .36-.06.49.2a2.21 2.21 0 0 1-1.36.27zm-2.18-18.25a9.32 9.32 0 0 0 1.25 2 4.87 4.87 0 0 1 1.11 3 4.61 4.61 0 0 1-.83-1.36 25.61 25.61 0 0 0-2.33-3 4.66 4.66 0 0 1-.55-5 31.6 31.6 0 0 0 1.32 4.36zm1.79 7.75a3.94 3.94 0 0 0 .76-1 4.39 4.39 0 0 0 .38-1.23 4 4 0 0 0-.35-2.47 7.62 7.62 0 0 0-.91-1.44 8.64 8.64 0 0 1-2-4.25 8.75 8.75 0 0 1-.37-1.9c.16 0 .17.1.19.17a14.75 14.75 0 0 0 2.45 5.08 8.63 8.63 0 0 1 1.49 4.91 2.84 2.84 0 0 1-.55 1.92 3 3 0 0 1-1.75.92c.14-.35.42-.5.63-.71zM223.52 70a12.21 12.21 0 0 1 .48-4.3c.1-.25.13-.55.44-.74-.07 1.14-.09 2.29-.06 3.44s.1 2.34.17 3.48a8.12 8.12 0 0 1-.32 2.72 1.73 1.73 0 0 1-.95 1.3c.78-1.98.16-3.98.24-5.9zm24.39-2.36a7.57 7.57 0 0 1-.09 1.66 6.54 6.54 0 0 1-.47 1.5 8.35 8.35 0 0 1-1.89 2.65 2.75 2.75 0 0 1-.44.32h-.21c0-.28.21-.45.38-.62a4.53 4.53 0 0 0 1.24-3c0-.8.2-1.57.32-2.36s.25-1.58.35-2.36a1.79 1.79 0 0 1 .77-1.33 17.27 17.27 0 0 0 .04 3.58zM222 83.52a2.51 2.51 0 0 1 .29 2 5.65 5.65 0 0 1-1.05 2.42 12 12 0 0 1-4.41 4.06c-.67.31-1.26.81-1.92 1.15a8.87 8.87 0 0 1 2.43-1.74 7.69 7.69 0 0 0 1.38-1 15.64 15.64 0 0 0 1.2-1.24 9 9 0 0 0 1.69-4.3 2.41 2.41 0 0 0-1.91-2.49c-.64-.19-1.31-.27-2.13-.44a4.55 4.55 0 0 1 1.48-.2 3.06 3.06 0 0 1 1.2.26 4.64 4.64 0 0 1 1.75 1.52zm21.64-.41A10 10 0 0 0 241 79a9.69 9.69 0 0 0-3.34-1.8.57.57 0 0 1 .69-.18 5.08 5.08 0 0 1 1.74.79 17.26 17.26 0 0 1 3.31 2.84 5.46 5.46 0 0 1 1 2 5.29 5.29 0 0 0 1.26 2.69 1.06 1.06 0 0 1 .27 1 7.22 7.22 0 0 1-2.25-3.23zm9.06-18.33a13.89 13.89 0 0 1 3.3-4.32 6 6 0 0 1 3-1.31 7.91 7.91 0 0 1-1.71 1.34 8.8 8.8 0 0 0-1.76 1.28 39.4 39.4 0 0 0-2.72 3.35.26.26 0 0 1-.07-.34zm.35 1a21.57 21.57 0 0 1 2.78-3.44 12.84 12.84 0 0 1 1.79-1.34 11.11 11.11 0 0 1 2.07-1.16 19.55 19.55 0 0 1-1.63 1.65c-.58.49-1.17 1-1.75 1.42a24.39 24.39 0 0 0-3.22 2.92zM246 84.73a3.07 3.07 0 0 1-1-1.92 7.24 7.24 0 0 0-3.29-4.46 2.25 2.25 0 0 1-.32-.36c2.73.79 4.61 3.64 4.61 6.74zm13.3-13.43a5.39 5.39 0 0 1-5.16.17 10.63 10.63 0 0 1 5.16-.17zm-12.88-5.13c-.33 1.43-.43 2.85-.63 4.29a4.28 4.28 0 0 1-1 2.25c-.2-.51.1-.9.21-1.27a9.47 9.47 0 0 0 .47-2.56 7.58 7.58 0 0 1 .28-1.58c.13-.52.3-1 .48-1.57a.4.4 0 0 1 .19.44zm13.78 4.08c-2.12.39-4.26 0-6.37.49 2.17-1.15 4.26-.66 6.37-.49z" fill="#fff" stroke="#fff" stroke-miterlimit="10" stroke-width=".25" fill-rule="evenodd"/><path d="M246.15 45.93a7.33 7.33 0 0 0 .08-3.23 6.42 6.42 0 0 0-2-3.67 4.86 4.86 0 0 0-3.61-1.4 1.48 1.48 0 0 0-1.33.57 2 2 0 0 0-.2 2c.1.19.2.39.31.58s.21.38.33.56a11.27 11.27 0 0 0 .74 1.11 11 11 0 0 0 2 2.05 15.71 15.71 0 0 1 2.18 2.13c.44.51.58 1 .14 1.5a1.77 1.77 0 0 0-.37.72 8.42 8.42 0 0 0-.78 3.33.62.62 0 0 1-.17-.3 9.24 9.24 0 0 0-2.24-3.64 7.1 7.1 0 0 0-3-1.82 1.78 1.78 0 0 0-1.91.35 1.58 1.58 0 0 0-.16 1.76 11.85 11.85 0 0 0 3.15 3.86 17.11 17.11 0 0 1 3.44 3.91 2.1 2.1 0 0 1 .37 1.71 3.81 3.81 0 0 1-1 1.49 8.15 8.15 0 0 1-1.83 1.4 8.92 8.92 0 0 1-1.07.54q-.57.23-1.17.42a6.67 6.67 0 0 0-2.46 1.21.8.8 0 0 0-.18 1c.31.34.67.15 1 .06l.19-.06a16.94 16.94 0 0 0 4-2 15 15 0 0 0 3-2.94 2.64 2.64 0 0 1 .83-.72c1.45-.77 2.9-1.57 4.39-2.34 1-.52 1.92-1.06 2.88-1.61a28.42 28.42 0 0 0 2.76-1.8 5.23 5.23 0 0 0 2-2.8c.23-1-.21-1.66-2-1.47l-.31.07a8 8 0 0 0-3.81 1.89l-.41.34-.41.32-.82.68c-.52.45-1 .92-1.5 1.4a20.2 20.2 0 0 0-2.5 3.13.28.28 0 0 1-.35.17c.07-1.6-.14-3.15-.16-4.75a7.18 7.18 0 0 1 .62-2.5 1.32 1.32 0 0 1 1.33-.86c1.28-.05 2.57-.14 3.87-.21 1-.06 1.93-.12 2.89-.24a15.69 15.69 0 0 0 2.84-.56 5.12 5.12 0 0 0 2.66-2c.72-1 .24-1.67-1.16-1.92a5.83 5.83 0 0 0-2.39.06 22.49 22.49 0 0 0-3.13 1c-1 .4-1.91.87-2.9 1.31a16.4 16.4 0 0 1-2.1.94A8.56 8.56 0 0 1 249 45a7.55 7.55 0 0 1 3.92-1.61c1.64-.09 3.25-.63 4.86-.83a11.47 11.47 0 0 0 4.32-1.61 3.38 3.38 0 0 0 1-.77c.52-.68.34-1.22-.53-1.54a4.11 4.11 0 0 0-3.26.36 21.25 21.25 0 0 0-3.43 1.86 5.25 5.25 0 0 1-1.67.9c.68-.58 1.28-1.21 1.89-1.84l.94-.95c.31-.31.65-.61 1-.92a2.69 2.69 0 0 1 1-.55 24.76 24.76 0 0 0 2.8-1.19c.9-.45 1.84-.92 2.69-1.43a2.68 2.68 0 0 0 1.31-1.7c.27-.93-.22-1.39-1.37-1.27a4 4 0 0 0-1.93.78 13.8 13.8 0 0 0-1.59 1.3c-.48.46-1 .93-1.42 1.43a3.14 3.14 0 0 1-1.26 1.06 7.86 7.86 0 0 0 .5-2.61 1.18 1.18 0 0 1 .72-1.24c.71-.44 1.43-.88 2.11-1.38.33-.25.66-.51 1-.78s.3-.29.44-.44a4.33 4.33 0 0 0 .38-.47 2.3 2.3 0 0 0 .47-.92c.08-.45-.21-.69-.78-.66a3.36 3.36 0 0 0-1.59.55 10.24 10.24 0 0 0-1 .75 6.43 6.43 0 0 0-.93.87c-.18-.2-.08-.31 0-.44a2.84 2.84 0 0 1 .27-.62 3.88 3.88 0 0 1 .36-.57c.26-.37.57-.73.86-1.09a3 3 0 0 0 .92-2.21c-.08-.72-.74-1-1.52-.66a2.44 2.44 0 0 0-1.2 1.07 17.4 17.4 0 0 0-.81 1.76c-.24.59-.41 1.2-.69 1.79-.35-.19-.24-.48-.37-.73a2.59 2.59 0 0 0-1-1.22 1.62 1.62 0 0 0-1.26-.25.88.88 0 0 0-.67.87 1.51 1.51 0 0 0 .39 1.13c.53.6 1.05 1.21 1.57 1.82a11.17 11.17 0 0 1 1.56 2.5 1.46 1.46 0 0 1-.07 1.59 2 2 0 0 1-.26-1c0-.2-.07-.41-.12-.61a4.76 4.76 0 0 0-.21-.6 3.86 3.86 0 0 0-.69-1.11 2 2 0 0 0-1.89-.65 1.63 1.63 0 0 0-1.5 1.85 2.73 2.73 0 0 0 .51 1 40.29 40.29 0 0 0 3 3.22c.37.44.38.74.09 1.12a20.09 20.09 0 0 1-2.16 2.37c-.39.37-.8.72-1.23 1.06a15.53 15.53 0 0 1-1.4.94c-.16.1-.3.3-.61.15a11.3 11.3 0 0 0 .67-1.81 17.53 17.53 0 0 0 .38-1.86 5.42 5.42 0 0 0 0-1.75 2.88 2.88 0 0 0-.92-1.63 2.86 2.86 0 0 0-2.38-.81 1.59 1.59 0 0 0-1.51 1.22 2 2 0 0 0 0 1.07 8.1 8.1 0 0 0 .87 2.06c.2.33.39.67.57 1l.51 1a4.58 4.58 0 0 1 .15 2.54c0 .15-.16.22-.29.3a32.71 32.71 0 0 0-3.43 2.41 3.82 3.82 0 0 1 .07-.44zm12.91-17c-.14-.21 0-.37.17-.5a8.34 8.34 0 0 1 .84-1.55c.06-.13.12-.27-.07-.35s-.3 0-.44.13-.12.36-.45.4a3.38 3.38 0 0 1 1.22-2c.19-.15.41-.35.72-.2a.48.48 0 0 1 .26.58 2.9 2.9 0 0 1-.14.48 7.14 7.14 0 0 1-2 2.48.55.55 0 0 1-.11.6zm-16 13.42c-.31.19-.11.39 0 .56.52.7.86 1.46 1.47 2.15a1.06 1.06 0 0 1 .33.79 34.7 34.7 0 0 1-3.06-2.59 13.4 13.4 0 0 1-1.23-1.4 11 11 0 0 1-.93-1.55 2.07 2.07 0 0 1-.19-1.18c.12-1.14 1.41-1.43 2.9-.81a5.22 5.22 0 0 1 2.8 2.74 6.29 6.29 0 0 1 .62 2.14 8.24 8.24 0 0 1-.09 2.16c0 .07-.08.13-.15.24-.94-1.08-1.47-2.23-2.45-3.23zM248 54.67c1.08-.7 2.27-1.3 3.44-2.09a9.05 9.05 0 0 0-2.58 1.1c-.53.29-1.07.62-1.58 1s-1.05.67-1.48 1a9.44 9.44 0 0 1 1-1.29c.32-.4.66-.76 1-1.12a24.91 24.91 0 0 1 4.08-3.34 7.13 7.13 0 0 1 2.6-1c1.2-.22 1.66.12 1.41 1.12a5.29 5.29 0 0 1-1.77 2.3 26.24 26.24 0 0 1-4 2.55c-.36.22-.72.42-1.08.62s-.75.38-1.13.56l-2.28 1.07a.61.61 0 0 1-.55.07c.97-.87 1.78-1.82 2.92-2.55zm-5.32-.82a5.91 5.91 0 0 0-1.26-1.72c-.55-.55-.83-1.2-1.34-1.78-.1-.11-.2-.27-.39-.21s-.09.27 0 .4a36.08 36.08 0 0 1 2.85 4.05.53.53 0 0 1 .11.44 4 4 0 0 1-1.06-1.14c-.93-1.13-2.26-2-3.26-3.07a10.93 10.93 0 0 1-1.67-2.36 1.11 1.11 0 0 1 .05-1.32 1.35 1.35 0 0 1 1.78-.26 7.81 7.81 0 0 1 3.93 3.69 7.41 7.41 0 0 1 .72 2.09c.13.71.2 1.43.31 2.15a2.29 2.29 0 0 1-.78-.96zm9.32-7.28a17.84 17.84 0 0 0 2.18-.55c-.27-.33-.56-.23-.83-.16a14.81 14.81 0 0 1-1.74.33c-.6.08-1.2.15-1.78.25a4 4 0 0 1-1.2 0 10.53 10.53 0 0 1 2.45-1.21 27.44 27.44 0 0 1 2.93-1.14 6 6 0 0 1 3.16-.25c1 .19 1.22.59.72 1.29a4.62 4.62 0 0 1-2.67 1.77 17.125 17.125 0 0 1-2.52.47c-.86.1-1.72.16-2.58.21l-2.67.09a2.49 2.49 0 0 1-1-.12 36.43 36.43 0 0 1 5.55-.98zm-1.35-8.77h-.21c-.07 1.43.67 2.94.23 4.39-.44-1.71-1.86-3.21-2.41-4.87a2.07 2.07 0 0 1-.08-1.15 1.26 1.26 0 0 1 1.15-.92 2 2 0 0 1 1.75.54 3 3 0 0 1 1 2.08 10 10 0 0 1-.57 3.11c-.28-1.16-.51-2.18-.82-3.18zm9.45 3c-.56-.41-.57-.42-1.17-.24-1 .31-1.89.7-3.05 1a5 5 0 0 1 1.25-.9A14.49 14.49 0 0 1 260.5 39a6.71 6.71 0 0 1 .89-.19 1.23 1.23 0 0 1 1.29.37c.31.45-.06.83-.46 1-1.36.75-2.59 1.69-4.35 1.71a6.1 6.1 0 0 0-1 .2c-.26.06-.53.1-.8.14-.09 0-.2 0-.31-.17a28.06 28.06 0 0 1 4.38-1.31zm-4.52-5.57a6.45 6.45 0 0 1-1.58-1.96 1.11 1.11 0 0 1-.19-1 1.46 1.46 0 0 1 .76-.73 1.3 1.3 0 0 1 1.74.34 4 4 0 0 1 .83 1.86 6.65 6.65 0 0 1 .18 1.8 5.79 5.79 0 0 1-.79-1.19 4.74 4.74 0 0 0-.71-.94c0 1 .84 1.82 1 2.81a9.36 9.36 0 0 0-1.2-1.04zm7.68-2.48a3.7 3.7 0 0 1 .73-.33 1.4 1.4 0 0 1 1.2 0c.37.25 0 .59-.07.88a1.74 1.74 0 0 1-.63 1c-.43.27-.86.53-1.3.77s-.92.47-1.4.69c-.94.45-1.91.86-2.88 1.28 0-.48.42-.56.73-.71l1.8-.85c.6-.28 1.21-.58 1.77-.9.25-.13.8-.28.55-.59s-.56.11-.83.22c-.46.18-.89.4-1.34.62s-.91.42-1.39.61a12.39 12.39 0 0 1 3.1-2.74zm-1.77-2.51c.13-.11.34-.25.09-.41s-.39 0-.53.13a6.22 6.22 0 0 1-1.3 1.05c-.17-.25 0-.41.1-.55a5.88 5.88 0 0 1 1.05-1 6 6 0 0 1 1.28-.8 3.17 3.17 0 0 1 .57-.18.39.39 0 0 1 .39 0 .25.25 0 0 1 0 .38 8.57 8.57 0 0 1-.9 1.11 11.84 11.84 0 0 1-1.15.95c-.23.16-.49.3-.73.44l-.14-.07c.49-.38.9-.73 1.31-1.1zm-5.44-1.34c-.26.57.54.9.56 1.45a9.23 9.23 0 0 1-1.72-1.94c-.18-.23-.08-.46 0-.68.18-.43.51-.5 1-.19a2.16 2.16 0 0 1 .79.86 4.3 4.3 0 0 1 .37 1.24c-.48-.21-.56-.58-.96-.79zm-20 34.65a5.38 5.38 0 0 1 2.63-1.23 5.45 5.45 0 0 1-2.58 1.18zM274.8 60.16a4.43 4.43 0 0 0 1.07.71 1.64 1.64 0 0 0 2.22-1.49 6.15 6.15 0 0 0 .09-1.8 2.11 2.11 0 0 0-.86-1.44c-.1-.06-.09-.19 0-.32a4.3 4.3 0 0 0 2.5-1.51c1-1.18 1-2.74-.13-3.43a3.51 3.51 0 0 0-1.94-.58c-.3 0-.65.09-.95-.19.5-.52.91-1 1.35-1.48a4.25 4.25 0 0 0 1-2.09 1.54 1.54 0 0 0-1.83-2 4.81 4.81 0 0 0-1.85.86c-.26.19-.49.51-.93.49a5.38 5.38 0 0 0 .09-3.6c-.25-.78-.71-1-1.44-.58a3.86 3.86 0 0 0-1.05.89 8.15 8.15 0 0 0-1.52 2.73c-.09.24-.17.49-.27.73a5 5 0 0 1-.41.74 3.16 3.16 0 0 1 .06-1.2 7.32 7.32 0 0 0-.35-4.13c-.15-.38-.29-.79-.77-.79s-.7.37-.95.7a4.74 4.74 0 0 0-.26.5 13.79 13.79 0 0 0-1.06 2.63 15.82 15.82 0 0 0-.64 2.74 10.9 10.9 0 0 0 0 4.37 1.26 1.26 0 0 1-.32 1.31 3 3 0 0 0-.65 1.21 2 2 0 0 1-.75 1.1 7.33 7.33 0 0 0-1 .95c-.16.21-.39.58-.07.81s.57 0 .77-.25.32-.54.51-.77c.46-.56.72-.6 1.12-.06a1.74 1.74 0 0 0 1.65.81c.49-.07.64.24.71.63a22 22 0 0 0 1.66 4.27 3.33 3.33 0 0 0 1.84 1.72 1.31 1.31 0 0 0 1.39-.23 2.48 2.48 0 0 0 .93-1.58 5 5 0 0 0-.21-2.24c.58.39.93.6 1.25.86zm2-5a4.77 4.77 0 0 1-1.73-.53 7.58 7.58 0 0 0-3.58-1c-.24 0-.53 0-.7-.27a4.12 4.12 0 0 1 2.41-.8 9.37 9.37 0 0 1 3.77.33c.84.3 1.82 0 2.64.42a2.7 2.7 0 0 1-2.79 1.82zm-6.27.11a30.25 30.25 0 0 0 3.84 1.62 6.58 6.58 0 0 1 2.35 1.42c.1.1.17.3.29.31.61 0 .68.38.39 1s-.63.85-1.2.7a3.61 3.61 0 0 1-1.46-.86c-1.65-1.42-3.38-2.72-5.14-4a7 7 0 0 1-.7-.68 5.22 5.22 0 0 1 1.65.46zm-1-10.8a17.91 17.91 0 0 1-.73 3.55c-.35 1.16-.77 2.31-1.23 3.44a1.51 1.51 0 0 1-.58.79c.1-3.8 1.19-7.21 1.86-10.72a4.66 4.66 0 0 1 .74 2.91zm7 3.06a10.94 10.94 0 0 0 1.4-1.83c.08-.13.14-.3.33-.25a.37.37 0 0 1 .25.33 3.05 3.05 0 0 1-.61 2.19 7.94 7.94 0 0 1-4.21 3.33c-.58.15-1.14.41-1.7.61l-.06-.11 2.32-2.1 1.17-1.07zm-7.45 8.8a17.61 17.61 0 0 1 2.52 4.37 2.88 2.88 0 0 1 .08 2.08 3.53 3.53 0 0 1-1.68-1.64 22.45 22.45 0 0 1-1.81-5.14.93.93 0 0 1 .06-.24c.41-.03.6.29.84.54zm2-10.8a6.93 6.93 0 0 1 1.39-2.53c.24-.27.44-.66 1-.6a20.81 20.81 0 0 1-1.42 3.6 25.48 25.48 0 0 1-1.27 2.7 8.61 8.61 0 0 1-1.87 2.4c.34-1 .7-1.91 1.06-2.83s.75-1.85 1.03-2.77zm6.2-.24a8.67 8.67 0 0 1-2 2.94 17.81 17.81 0 0 1-3.73 2.9 13.16 13.16 0 0 1 1.19-2.13 21.74 21.74 0 0 1 1.55-1.82 5.94 5.94 0 0 1 2.95-1.92zm-3.28.41a23 23 0 0 1-4.31 5.77 27.5 27.5 0 0 0 2.43-4.12c.67-1.44 1.24-2.94 1.89-4.42a3.1 3.1 0 0 1-.01 2.77zm3 10.89a1.09 1.09 0 0 1 .55 1 67.19 67.19 0 0 1-7.05-3.14 10.65 10.65 0 0 1 6.5 2.14zm2.9-4.35c-1.86.47-3.49-.23-5.5-.38 3.27-1.48 4.83-1.41 5.49.38zm-7 10c-.69-.61-.37-1.78-1-2.42s-.61-1.59-1.08-2.34c2.18 1.01 3 2.92 2.07 4.8zm-6.4-11.72a13.24 13.24 0 0 1 .2-3.94 15.51 15.51 0 0 1 .51-1.89c.19-.63.4-1.27.65-1.89-.05.65-.14 1.29-.24 1.94s-.26 1.27-.4 1.91c-.28 1.35-.56 2.6-.73 3.91zm-.5 4.37c-.07-.41-.53-.71-.22-1.24.21-.35.4-.43.64-.12.48.64.62 1.47 1.13 2.29-1.18.09-1.43-.06-1.55-.89zM115.67 103.6a2.51 2.51 0 0 0 2.24-2 3 3 0 0 0-.45-2.91 3.93 3.93 0 0 0-1.46-1.02 3.51 3.51 0 0 0-1.78-.2 1.37 1.37 0 0 0-1.13 1 1.74 1.74 0 0 0 .21 1.88 2 2 0 0 0 .71.48 2.64 2.64 0 0 0 .89.15c.52 0 .85-.43.89-1a.94.94 0 0 0-.85-1 .3.3 0 0 0-.35.14.31.31 0 0 0 .11.45c.11.08.25.11.35.19a.38.38 0 0 1 .1.27.32.32 0 0 1-.29.27 1.15 1.15 0 0 1-1.16-.49 1.1 1.1 0 0 1 0-1.3.87.87 0 0 1 1-.47 3.41 3.41 0 0 1 2.3 1.06 2.37 2.37 0 0 1 .33 2.49 2 2 0 0 1-1.67 1.43 4.09 4.09 0 0 1-2.19-.21 4.39 4.39 0 0 1-1.68-1.35c-1.51-1.9-3.15-3.55-4.79-5.35a12.51 12.51 0 0 1 2.69.74 3.25 3.25 0 0 0 2.09 0 12.28 12.28 0 0 0 2.94-1.42l1.07-.7 1.08-.71c.72-.46 1.45-.89 2.2-1.27a5.38 5.38 0 0 1 2.38-.77h.91l.92-.09a4.81 4.81 0 0 1 1.81.16c.19.06.39.07.46-.2s-.12-.34-.3-.44l-2.81-1.6a9 9 0 0 0-3.06-1.17 4.43 4.43 0 0 0-2 .13 4.49 4.49 0 0 0-1.8 1.11 28.11 28.11 0 0 0-2.21 2.51 6 6 0 0 1-3.31 2.19 9 9 0 0 1-5.79-.38c-.38-.19-.8-.32-1.2-.5-.19-.09-.46-.09-.52-.38 0 0 0-.09.06-.1.37-.06.73-.14 1.09-.18a6.08 6.08 0 0 0 2.59-.9 12.2 12.2 0 0 0 2.19-1.78 7.81 7.81 0 0 0 2.25-4.68 4.87 4.87 0 0 1 2.87-3.91 5.53 5.53 0 0 1 1.37-.61.43.43 0 0 0 .34-.34c0-.24-.12-.34-.28-.4a1 1 0 0 0-.25-.08 13.48 13.48 0 0 0-3.2-.28 4.43 4.43 0 0 0-1.58.45 5.65 5.65 0 0 0-1.44 1 6.37 6.37 0 0 0-1.91 3.17 37.25 37.25 0 0 1-1.18 4.32 4.75 4.75 0 0 1-4.73 3.33 9.26 9.26 0 0 1-1.18-.13 6.22 6.22 0 0 1-1.15-.2 12.5 12.5 0 0 1-2.16-1 1.92 1.92 0 0 0-1.25-.25c-.21 0-.43 0-.5.28a.59.59 0 0 0 .23.73c.11.06.26.08.38.13A27 27 0 0 0 98.69 93a4.08 4.08 0 0 1 1.62.49 4.84 4.84 0 0 1 1.74 3.1 1.84 1.84 0 0 1-1 2.07 8.39 8.39 0 0 1-3.19.71 10.58 10.58 0 0 1-2.39-.32 9.16 9.16 0 0 1-2.19-1 11.37 11.37 0 0 0-3-1.28c-1-.32-2.08-.58-3.14-.86-.29-.08-.53 0-.61.27s.15.44.42.5a7 7 0 0 1 2.37 1.06 22.35 22.35 0 0 1 2.08 1.54A18.82 18.82 0 0 0 96 102a8.67 8.67 0 0 0 2.89.73 7.23 7.23 0 0 0 2.93-.35 2.9 2.9 0 0 0 1.86-1.49 7.23 7.23 0 0 0 .51-5.06c-.05-.2-.28-.39-.08-.64a2.3 2.3 0 0 1 1.06.61 2.92 2.92 0 0 1 .8 4 24 24 0 0 1-1.43 2.13 6.6 6.6 0 0 0-.74 6.92 9 9 0 0 0 .58 1 10.54 10.54 0 0 0 .7 1c.5.61 1.05 1.2 1.6 1.79a10.13 10.13 0 0 0 1.93 1.51l1 .67a7.58 7.58 0 0 1 1 .71.44.44 0 0 0 .62 0c.24-.25.08-.5-.13-.64-1.3-.84-1.79-2.27-2.65-3.43a4 4 0 0 1-.66-1.84 12 12 0 0 1 .29-3.82 25.13 25.13 0 0 0 .31-5.93c0-.48-.19-1-.3-1.58a24.71 24.71 0 0 1 4.31 5.23.38.38 0 0 1 0 .1c.45.83.89 1.6 1.41 2.37a12.13 12.13 0 0 1 1.62 3.85 6.31 6.31 0 0 1 .07 2.77 9.12 9.12 0 0 1-2.08 4.29 7.68 7.68 0 0 0-1.81 3.38 21.88 21.88 0 0 1-.42 2.53 1.07 1.07 0 0 0 .38 1.1 5.53 5.53 0 0 1 1.24-1.92 16.72 16.72 0 0 1 1.77-1.48 8.66 8.66 0 0 0 3.26-8.24c0-.22-.21-.46.1-.72a24 24 0 0 0 3.69 3.93 15.83 15.83 0 0 1 2.56 2.76 2.3 2.3 0 0 1 .08 3.16 2.42 2.42 0 0 1-4-.23 3.76 3.76 0 0 1-.5-1.68c0-.77.19-1.26.7-1.42a1.85 1.85 0 0 1 1.74.64c.26.26.49.55.21.84a.57.57 0 0 1-.89-.1c-.19-.22-.37-.25-.57 0a.41.41 0 0 0 0 .59 1.61 1.61 0 0 0 .91.35 1.57 1.57 0 0 0 1-.12 1.07 1.07 0 0 0 .19-1.63 3.37 3.37 0 0 0-1.38-1 1.78 1.78 0 0 0-2.56 1.64 4.48 4.48 0 0 0 .35 1.69 3.3 3.3 0 0 0 2 1.82 2.86 2.86 0 0 0 2.56-.36 3 3 0 0 0 .77-4.4c-.26-.39-.69-.69-.77-1.18a.78.78 0 0 1 .57.07 6.35 6.35 0 0 1 3.94 4.67 6.12 6.12 0 0 0 3.22 4.12c1.5.87 2.94 1.88 4.34 2.85.29.21.6.38.9.58a.45.45 0 0 0 .64 0c.18-.23 0-.4-.2-.54s-.32-.23-.49-.33a7.9 7.9 0 0 1-2.64-2.66 17.18 17.18 0 0 1-1.26-2.35 10.6 10.6 0 0 0-4.6-4.88c-.31-.19-.65-.34-.77-.73a4.56 4.56 0 0 1 .49-.11h.45a14.64 14.64 0 0 1 3.74 0 19 19 0 0 1 3.64.91c2 .65 4 1.56 6.13 2.14a9.91 9.91 0 0 1 2.25.39c.28.13.58.29.78-.06s-.13-.55-.44-.71a3.82 3.82 0 0 1-1.32-1.14 7.82 7.82 0 0 0-1.85-1.87 9.47 9.47 0 0 0-4-1.54 14.63 14.63 0 0 0-2.1-.11 13.14 13.14 0 0 0-2.14.21c-.84.14-1.71.24-2.58.4q-.64.12-1.29.3a10.7 10.7 0 0 0-1.25.4 2.22 2.22 0 0 1-.9.07 9.7 9.7 0 0 1-3.24-.73 11.76 11.76 0 0 1-1.46-.74c-.46-.3-.91-.63-1.35-1-.2-.17-.49-.31-.51-.64.29-.06.44.14.63.25a9.26 9.26 0 0 0 1.46.7 7.61 7.61 0 0 0 1.53.33 8.1 8.1 0 0 0 3.15-.28 7.5 7.5 0 0 0 1.8-.79c.56-.32 1.1-.72 1.65-1.08a4.73 4.73 0 0 1 4.62-.71 1.23 1.23 0 0 0 .41.1.31.31 0 0 0 .33-.23.37.37 0 0 0-.09-.28 1.3 1.3 0 0 0-.55-.32 5.7 5.7 0 0 1-1.6-.64 5.51 5.51 0 0 0-1.64-.47 9.2 9.2 0 0 0-1.48 0 13.61 13.61 0 0 0-1.43.17 10 10 0 0 0-2.74.91 13.1 13.1 0 0 1-3.53 1.12c-2 .3-3.45-.86-5-2a2 2 0 0 1 1 .09 2.92 2.92 0 0 0 3.08-1.08 1.38 1.38 0 0 0 .3-1.57 1.94 1.94 0 0 0-1.67-1 1.27 1.27 0 0 0-1.15.84 1 1 0 0 0 .39 1.13.39.39 0 0 0 .58 0 .36.36 0 0 0 0-.49 1.69 1.69 0 0 1-.28-.32.29.29 0 0 1 .1-.38c.45-.29.82-.08 1.17.18s.51.47.29.91a2.5 2.5 0 0 1-3.08 1.1 6 6 0 0 1-1.47-.82 9.48 9.48 0 0 1-1.21-1.16c-.15-.17-.41-.32-.25-.65 2.27.3 4-.89 5.41-2.46a17.27 17.27 0 0 0 2.21-3.75 10.16 10.16 0 0 1 1.77-2.4 8.13 8.13 0 0 1 1.1-.92 8 8 0 0 1 1.26-.77 2 2 0 0 0 1-.79 2.09 2.09 0 0 0-1.12 0 1.86 1.86 0 0 1-1 .11 5.15 5.15 0 0 0-2.87.33 5.55 5.55 0 0 0-3.64 3.62c-.16.48-.34.94-.52 1.41a13.06 13.06 0 0 1-1.35 2.53 1.49 1.49 0 0 1-1.15.64 4 4 0 0 1-2.89-1c.57-.41 1.01-.28 1.41-.33zm5.49-13.06c-.93.23-1.88.42-2.82.71a11.26 11.26 0 0 0-1.4.51 8.94 8.94 0 0 0-1.35.74c-1 .65-2 1.2-3 1.91a6.56 6.56 0 0 1-1.91 1 5.36 5.36 0 0 1-1.06.2 5.46 5.46 0 0 1-1.13-.06 4.09 4.09 0 0 1 1.45-.42 6.24 6.24 0 0 0 3.89-2.55c.46-.57.9-1.16 1.39-1.7a5.21 5.21 0 0 1 2.44-1.68 4 4 0 0 1 2.71.2 8.68 8.68 0 0 1 2 1.05c-.43.32-.82-.01-1.21.09zm-14.28-1.33a11 11 0 0 0 .66-1.33 23.65 23.65 0 0 1 2.47-4.6 3.5 3.5 0 0 1 1.17-1.16l2-1.14c-.08.43-.31.48-.46.6a6.24 6.24 0 0 0-2.61 4.26c-.39 3.32-2.61 4.86-5.14 6.2a27.07 27.07 0 0 0 1.91-2.83zm-1.5 12.55a14.24 14.24 0 0 0 1.78-2.88 2.85 2.85 0 0 1 0 2.17 8.77 8.77 0 0 1-.62 1.58 8.42 8.42 0 0 0-.53 7.43 7.74 7.74 0 0 1 .3.93c0 .05 0 .12-.08.18a7.77 7.77 0 0 1-1.78-2.22 6.42 6.42 0 0 1 .91-7.19zm6.15-20.45a4.43 4.43 0 0 0-2 1.8 32.12 32.12 0 0 0-2.61 5 11.59 11.59 0 0 1-1.08 1.69c.48-1.75.94-3.5 1.3-5.26a5.41 5.41 0 0 1 1.86-2.88 3.79 3.79 0 0 1 2.67-1.09c.31.05.66-.09 1 .05a2.49 2.49 0 0 1-1.14.69zM94.6 100.25a16.83 16.83 0 0 0 5.62.67 3.56 3.56 0 0 0 1.27-.33 5.84 5.84 0 0 0 1.13-.72 2 2 0 0 0 .87-1.63 1 1 0 0 1 .34-.8 6.76 6.76 0 0 1-.58 3.29 2.41 2.41 0 0 1-1.39 1.11 7.47 7.47 0 0 1-3.32.34 8.65 8.65 0 0 1-3.22-1.08c-.69-.36-1.42-.69-2.14-1l.11-.25zm12.62 11.28a9.6 9.6 0 0 1-1.24-5.38 9.15 9.15 0 0 1 .52-2.06c.39-1 .89-2 1.28-3a6 6 0 0 1 .09 2 40.78 40.78 0 0 1-.63 4.53 6.41 6.41 0 0 0 .83 4.47c.09.13.24.28.08.52a2.07 2.07 0 0 1-.93-1.08zm14.71-11a10 10 0 0 0-1.08 2.07 4.83 4.83 0 0 1-2.08 2.5 4.67 4.67 0 0 1 .77-1.4 28.91 28.91 0 0 0 1.48-3.55 4.69 4.69 0 0 1 4-3 31.79 31.79 0 0 0-3.09 3.36zm-5.81 5.42a4.18 4.18 0 0 0 2.5-.1 4.11 4.11 0 0 0 2-1.56 8.13 8.13 0 0 0 .79-1.52 8.68 8.68 0 0 1 2.7-3.83c.5-.41.86-1 1.46-1.27.12.11 0 .19-.06.24a14.82 14.82 0 0 0-3.16 4.67 8.78 8.78 0 0 1-3.51 3.78 2.58 2.58 0 0 1-3.61-.58 1.83 1.83 0 0 1 .89.15zm-1-12.53c1.3-.65 2.54-1.58 4-1.78a1.3 1.3 0 0 1 .87 0 59.33 59.33 0 0 0-5.99 3.54 8 8 0 0 1-2.52 1.1 1.7 1.7 0 0 1-1.6-.16c2.12-.3 3.54-1.84 5.21-2.72zm14.24 19.95a7.51 7.51 0 0 1-6.25.81 2.88 2.88 0 0 1-.5-.24s-.06-.12-.09-.2a.9.9 0 0 1 .72 0 4.61 4.61 0 0 0 3.21-.46 23.35 23.35 0 0 1 2.21-.91c.74-.27 1.48-.52 2.21-.85a1.78 1.78 0 0 1 1.54 0 20.65 20.65 0 0 0-3.08 1.83zm-26.68-14.49a2.46 2.46 0 0 1-1.56 1.22 5.83 5.83 0 0 1-2.62.3 23.35 23.35 0 0 1-3-.51 9.08 9.08 0 0 1-2.79-1.3c-.6-.42-1.33-.67-2-1.07a9 9 0 0 1 2.73 1.22 10.45 10.45 0 0 0 1.57.7 10.74 10.74 0 0 0 1.67.42 9 9 0 0 0 4.58-.69 2.43 2.43 0 0 0 1.21-2.9c-.16-.65-.43-1.26-.69-2.06a3.69 3.69 0 0 1 1.28 2.37 4.73 4.73 0 0 1-.38 2.3zm11.18 18.51a9.9 9.9 0 0 0 2.23-4.34 9.63 9.63 0 0 0-.11-3.81.56.56 0 0 1 .5.5 5.47 5.47 0 0 1 .19 1.93 17.47 17.47 0 0 1-.81 4.3 5.18 5.18 0 0 1-1.25 1.86 5.29 5.29 0 0 0-1.69 2.43 1 1 0 0 1-.69.71 7.16 7.16 0 0 1 1.63-3.58zm20.41-1.39c1.82.12 3.64 0 5.39.69a5.93 5.93 0 0 1 2.62 2c-1.46-.35-2.56-1.39-4-1.73-.71-.16-1.42-.27-2.13-.36s-1.42-.22-2.13-.33a.28.28 0 0 1 .25-.27zm-.73.83c.74.07 1.48.16 2.21.28a17.37 17.37 0 0 1 2.15.42 11.49 11.49 0 0 1 4.15 2.05 33.74 33.74 0 0 1-4.36-1.41c-.69-.26-1.37-.5-2.06-.73a15.15 15.15 0 0 0-2.09-.57zm-19.9 3.38a3 3 0 0 1 1.17-1.78 7.19 7.19 0 0 0 2.19-5.03 2.74 2.74 0 0 1 .15-.45 6.07 6.07 0 0 1-.52 4.08 7.66 7.66 0 0 1-1.25 1.82 7.49 7.49 0 0 1-1.74 1.4zm18.28 4.79a5.32 5.32 0 0 1-2.74-4.34 10.48 10.48 0 0 1 2.74 4.34zm-2-13.68a33.57 33.57 0 0 0-4 1.59 4.24 4.24 0 0 1-2.43.32c.33-.43.83-.37 1.2-.46a10.34 10.34 0 0 0 2.46-.9 10 10 0 0 1 3.1-.89.38.38 0 0 1-.36.33zm3.4 13.94c-1.41-1.67-2.13-3.68-3.63-5.23 2.03 1.22 2.69 3.28 3.6 5.22zM163 114.91c0 .42.38.39.64.44.94.18 1.9.33 2.86.45l1.5.2c.49.05 1 .09 1.46.1h.33c.4-.73 1.17-.4 1.75-.6.84-.3 1.3-1 2-1.45.32-.17.24-.72.29-1.11 0-.19-.21-.43.06-.57s.48 0 .67.21l.25.19a2 2 0 0 0 .3-1.66 6.39 6.39 0 0 0-.13-.63c0-.18 0-.38.18-.47s.31.12.45.21.1.2.3.14c-.24-.82.28-1.64 0-2.48a.34.34 0 0 1 .36-.42c.25 0 .25.17.27.36 0 .35.12.7.18 1 .32 0 .38-.25.49-.42.29-.41.4-1 1.1-1 .15 0 .29-.37.45-.55a.33.33 0 0 1 .48 0 .31.31 0 0 1 .06.39c-.18.3-.38.58-.57.86 0 .31.34.25.47.41s.16.46-.1.62a3.71 3.71 0 0 1-.77.39 3.51 3.51 0 0 0-2.41 3 1.77 1.77 0 0 0 1.24-.92c.08-.11.1-.29.21-.36a.54.54 0 0 1 .78.08c.19.21 0 .39-.16.53l-1.75 1.34c0 .23.19.15.29.2s.36.18.36.37-.22.26-.42.29c-1.42.29-2.55 1.18-3.91 1.6-.09 0-.15.14-.41.37.75 0 1.45-.07 2.13-.14a8.41 8.41 0 0 0 1.95-.37 28.64 28.64 0 0 0 3.47-1.35 5.22 5.22 0 0 0 2.21-1.94c.49-.71.43-.85-.28-1.27-.27-.16-.63-.23-.7-.6a.38.38 0 0 1 0-.3.33.33 0 0 1 .29 0 3.9 3.9 0 0 0 .93.54.42.42 0 0 0 .68-.27 4.48 4.48 0 0 0 .16-.52c.22-.83.2-.84-.59-1.18a3.33 3.33 0 0 1-1-.52c-.12-.12-.31-.24-.19-.44s.3-.09.46 0a4.44 4.44 0 0 0 1.62.5 5.34 5.34 0 0 0 0-1.64.66.66 0 0 0-.54-.69c-.33-.11-.67-.22-1-.35a.49.49 0 0 1-.3-.71c.55 0 1 .59 1.6.37.28-.63-.31-1.12-.32-1.71 0-.22-.31-.24-.52-.29a5.28 5.28 0 0 1-1.49-.47c-.15-.09-.29-.22-.21-.43s.25-.18.42-.12a3 3 0 0 0 1.63.4v-.94a2.09 2.09 0 0 0-1-2.24.5.5 0 1 1 .22-.55c.18.16.32.39.61.45a1.16 1.16 0 0 0 0-1.18 11.89 11.89 0 0 1-.53-1.28c-.09-.23-.24-.51.06-.64s.34.14.45.33a1 1 0 0 0 .18.23c.3-.2 0-.62.24-.82a.22.22 0 0 1 .33.19c.06.4.15.6.63.54s.71.23.38.77c-.21.35-.44.7-.62 1.06a3.77 3.77 0 0 0-.42 1.15c.32.16.4-.06.51-.22s.06-.43.29-.53.51-.32.73 0-.09.41-.24.58c-.36.43-.72.83-1 1.27a1.42 1.42 0 0 0-.21 1.2c.42-.15.28-.56.45-.79a.28.28 0 0 1 .36-.09.29.29 0 0 1 .21.33c-.06.23-.2.44-.28.67a3.06 3.06 0 0 0-.15 2.55c.22-.08.25-.26.27-.44s.13-.38.4-.3a.33.33 0 0 1 .22.5 19 19 0 0 0-.62 2.24c0 .17-.12.34.11.53a1.41 1.41 0 0 0 .41-.79c.05-.19.18-.33.38-.28s.24.25.25.44a1.15 1.15 0 0 1-.28.78 16.36 16.36 0 0 0-.94 1.81 2.6 2.6 0 0 0-.28 1.06c.4-.06.47-.36.63-.57a3.27 3.27 0 0 1 .39-.51c.15-.15.34-.08.5 0s.14.31 0 .45c-.73.81-1.46 1.63-2.24 2.42a1.09 1.09 0 0 0-.43.79 14.18 14.18 0 0 0 2.89-2.26 13.88 13.88 0 0 0 1.62-1.81 18 18 0 0 0 1.29-2.08 7.89 7.89 0 0 0 .59-3.56c0-.25-.2-.34-.44-.36-.42 0-.84-.08-1.25-.15a.41.41 0 0 1-.38-.44c0-.33.29-.18.48-.15a1.89 1.89 0 0 0 .52.06c.33-.07.82.32 1-.25a1.21 1.21 0 0 0-.83-1.46c-.33-.11-.7 0-1-.28a.3.3 0 0 1-.13-.36.26.26 0 0 1 .3-.21c.38 0 .71.31 1.11.25.07-1.39-.1-1.61-1.31-1.89a2 2 0 0 1-.49-.15.38.38 0 0 1-.15-.37c0-.18.17-.19.31-.19s.53.18.81 0c-.17-.86-.51-1.55-1.45-1.69a.87.87 0 0 1-.27-.14.29.29 0 0 1-.14-.36.3.3 0 0 1 .21-.17c.22 0 .45 0 .68.06-.11-1.23-.17-1.31-1-1.63-.18-.06-.44-.06-.41-.36s.25-.33.5-.27a.39.39 0 0 0 .38-.1c.07-.66-.35-1-.8-1.33-.17-.12-.37-.16-.54-.26s-.28-.23-.2-.43.2-.09.32-.08.49.25.76.14c.16-.34 0-.67-.12-1a1.36 1.36 0 0 1 0-.72.27.27 0 0 1 .27-.22.35.35 0 0 1 .38.27c.07.31.09.62.13.91.23.15.3 0 .41-.14a.29.29 0 0 1 .43 0 .43.43 0 0 1-.01.49c-.16.3-.34.58-.48.87a.83.83 0 0 0 .08 1.09 3.23 3.23 0 0 0 .68-1c.13-.21.28-.28.48-.13a.35.35 0 0 1 0 .54 4.2 4.2 0 0 0-.58 1.06c-.44 1-.45 1 .13 2.31a3.11 3.11 0 0 0 .95-1.48c.09-.19.19-.4.43-.28a.38.38 0 0 1 .13.55c-.19.4-.42.78-.63 1.18a1.76 1.76 0 0 0 .07 2.33 3.4 3.4 0 0 0 .7-1.33c.13-.28.25-.58.38-.86a.22.22 0 0 1 .33-.11.28.28 0 0 1 .13.36 1.85 1.85 0 0 1-.15.39c-.4.77-.54 1.67-.88 2.45-.17.38-.15.39.34 1.53.47-.36.46-1 .81-1.43.1-.13.15-.32.24-.46s.3-.13.45 0a.23.23 0 0 1 0 .36 6.18 6.18 0 0 0-.77 1.62c-.21.63-.69 1.2-.42 2a8.63 8.63 0 0 0 .69-1.14 1.72 1.72 0 0 1 1-.87c.13.52-.22.68-.37.93a3.78 3.78 0 0 0-.75 1.61.77.77 0 0 1-.11.4 2.06 2.06 0 0 0-.43 1.93c.35-.63.64-1.23.92-1.82.13-.3.26-.59.4-.88l.36-.9c.51-1.27 1-2.54 1.51-3.77.26-.61.53-1.21.83-1.8s.63-1.15 1-1.73c.2-.31.36-.58-.07-.88a5 5 0 0 1-1.72-2.86 19.06 19.06 0 0 1-.93-3.62c-.05-.47-.34-.58-.61-.76a1.19 1.19 0 0 1-.52-1.18.92.92 0 0 1 .7-.91.89.89 0 0 1 1 .23c.32.3.21.6.16 1a5.64 5.64 0 0 0 .05 2.85 22.62 22.62 0 0 0 1.31 3.73 1.88 1.88 0 0 0 1 1.1c.07-.26-.08-.47-.13-.68a10.87 10.87 0 0 1 .16-6.15 8.94 8.94 0 0 1 1.92-2.71 3.48 3.48 0 0 0 .85-1.53c.26-1.17 1.09-1.24 1.82-.41.5.57.41 1.23-.21 1.45a.39.39 0 0 1-.18 0c-1.44 0-2.08 1.09-2.86 2a4.82 4.82 0 0 0-.48.7 4.69 4.69 0 0 0-.38.74 5.67 5.67 0 0 0-.36 1.74 11.58 11.58 0 0 0 .21 3.56 1.53 1.53 0 0 0 .31.74c.29-.17.21-.45.18-.68a5.88 5.88 0 0 1 1.21-4.19 1.13 1.13 0 0 0 .21-1.26 1 1 0 0 1 .74-1.29 1.15 1.15 0 0 1 1.07 1 1.21 1.21 0 0 1-.68 1.24c-1.44.77-1.9 2.07-2 3.72a.79.79 0 0 0 .08.58 3.81 3.81 0 0 0 1-1 7.33 7.33 0 0 1 1.53-1.32 18.5 18.5 0 0 1 1.74-1c.43-.22.79-.4.64-1a1.25 1.25 0 0 1 .25-.85 1 1 0 0 1 1.12-.58 1.26 1.26 0 0 1 1 .85 1.35 1.35 0 0 1-.46 1.39c-.33.18-.67.45-1.11.3a.91.91 0 0 0-.76.1 13.14 13.14 0 0 0-4.58 3.68c-.14.18-.38.36-.28.62a.67.67 0 0 0 .7.37 8.9 8.9 0 0 0 2.55-.42 3.93 3.93 0 0 0 2-1.62.82.82 0 0 1 .34-.35c.36-.17.72-.41 1.14-.09.18.14.36.32.25.54-.2.41-.27 1.09-.86 1-.89-.15-1.46.38-2.15.7-.3.14-.61.27-.92.38a8.16 8.16 0 0 1-1 .26 10.41 10.41 0 0 1-2 .21 3.18 3.18 0 0 0 1.66.8A11.86 11.86 0 0 0 200 94a7.92 7.92 0 0 0 1.69-.11 8.07 8.07 0 0 0 3.2-1.25 3.65 3.65 0 0 0 1.59-1.94c.22-.66.65-.9 1.16-.75a1.89 1.89 0 0 1 1.09 1.34c0 .54-1 1.38-1.48 1.1-.61-.4-1-.09-1.37.22a9.67 9.67 0 0 1-2.66 1.39 6 6 0 0 1-1.9.45 13.57 13.57 0 0 1-2.38-.08 7.07 7.07 0 0 1-2.29-.67.31.31 0 0 0-.42 0 3.14 3.14 0 0 0 2.07 2.3 8.4 8.4 0 0 0 2.9.52.62.62 0 0 0 .7-.46 1.17 1.17 0 0 1 2.16.91 1.05 1.05 0 0 1-1.53.41 1.84 1.84 0 0 0-1.26-.41 15.67 15.67 0 0 1-1.68-.17 4.57 4.57 0 0 1-4.11-3.43c-.32-.05-.39.24-.51.41-.23.34-.44.69-.64 1s-.39.7-.56 1.06c-.35.73-.66 1.48-1 2.26-.46 1.21-1 2.42-1.48 3.64s-1.09 2.37-1.65 3.58c-.08.15-.23.29-.12.56a2.73 2.73 0 0 0 1.45-1.58c.15-.33.29-.67.45-1a3.91 3.91 0 0 1 .6-1c.28.78-.35 1.29-.33 2.07a5.91 5.91 0 0 0 1.33-2.93c.38.41.39.4.15 1.92a.9.9 0 0 0 .87-.66c.18-.47.36-.94.57-1.39.13-.25.08-.81.5-.66s0 .52 0 .79a5.55 5.55 0 0 0-.4 1.31 2.07 2.07 0 0 0 1.89-.83c.17-.26.47-.42.67-.68s.26-.38.5-.18.06.38 0 .57-.46.36-.51.67c1.06.15 1.1.12 1.7-.61.23-.28.43-.58.66-.85s.35-.32.56-.16.06.35-.09.52a2.06 2.06 0 0 0-.73 1.11 2.15 2.15 0 0 0 2-1.12 2.52 2.52 0 0 0 .24-.59.26.26 0 0 1 .34-.18c.19.06.35.19.27.39-.15.39-.35.76-.56 1.21.75 0 1-.49 1.26-.93s.29-.61.69-.42.21.52 0 .77v.17c.41 0 .62-.38.94-.55a.43.43 0 0 1 .64.2c.1.24-.09.4-.29.52s-.57.15-.77.4c0 .15.14.13.24.15s.57 0 .5.38-.35.24-.55.23a12.29 12.29 0 0 0-2-.07c.3.23.61.45.9.68a.24.24 0 0 1 .08.37.29.29 0 0 1-.4.06 8.05 8.05 0 0 1-1.08-.71 1.73 1.73 0 0 0-1.9-.28c.27.44.72.59 1.08.85.11.07.27.15.19.32a.33.33 0 0 1-.47.15c-.56-.31-1.09-.67-1.64-1a2.24 2.24 0 0 0-1.88-.27 3.24 3.24 0 0 0 1.37.82c.16.08.36.16.28.39s-.29.19-.45.12c-.53-.25-1.17-.32-1.57-.75a1.32 1.32 0 0 0-1.91-.14c0 .37.24.44.45.55a7.33 7.33 0 0 1 .7.29c.26.15.79.23.64.57s-.57 0-.84-.06a9.77 9.77 0 0 1-1.71-.66 1 1 0 0 0-1.22.19 4.79 4.79 0 0 0 1.28 1c.14.11.3.22.17.44s-.31.09-.46 0-.56-.32-.84-.48a2.2 2.2 0 0 0-.9-.31 1.38 1.38 0 0 0-1.22.72c-.14.45.34.47.53.69l.09.07c.19.19.62.37.41.63s-.5-.07-.7-.23c-1.07-.86-2.13-.49-2.93.61a20.29 20.29 0 0 1-4.55 4.75c-.69.5-1.42 1-2.28 1.53a12.48 12.48 0 0 0 5-1 3.11 3.11 0 0 0 .4-.22c.31-.17.72-.34.9 0s-.31.47-.59.57a2.56 2.56 0 0 0-1.24.87 7.85 7.85 0 0 0 2.72-.33c.63-.15 1.24-.4 1.86-.59.23-.08.47-.07.55.18s-.09.35-.27.44c-.52.25-1 .48-1.68.77a3.39 3.39 0 0 0 3.08.24c.6-.27 1.21-.52 1.83-.74.24-.09.56-.16.67.18s-.15.39-.37.47a12.07 12.07 0 0 0-1.58.67 3 3 0 0 0 3.46-.09c.42-.34.87-.66 1.29-1a.47.47 0 0 1 .62-.06c.27.22 0 .37-.14.52l-1.26 1.06a2.05 2.05 0 0 0 2-.45 13.09 13.09 0 0 0 1-1c.26-.3.53-.37.78-.11s-.11.41-.27.59l-.34.33c.4.2.73 0 1-.12.14 0 .26-.19.4-.23a.4.4 0 0 1 .55.25c0 .17-.12.32-.36.38l-2.13.55c.12.34.43.27.65.32l1.49.29c.32.06.7.22.55.54s-.51.17-.77 0a3.06 3.06 0 0 0-1.56-.39 3.56 3.56 0 0 1-1.68-.3c-.41-.23-.89 0-1.47.11a2.39 2.39 0 0 0 1.22.61 1.45 1.45 0 0 1 .69.34.25.25 0 0 1 .07.29.31.31 0 0 1-.39.18 5.63 5.63 0 0 1-.61-.27 18.16 18.16 0 0 0-4-1.41c-.14 0-.29-.1-.49.1a2.17 2.17 0 0 0 1.08.63.74.74 0 0 1 .53.37c.06.14.09.28-.06.38a.46.46 0 0 1-.34.07 1.57 1.57 0 0 1-.37-.22 10.82 10.82 0 0 0-3.54-1.82c-.51-.11-.88-.62-1.67-.59a6.76 6.76 0 0 0 1.52 1.06c.19.1.41.16.6.27a.36.36 0 0 1 .11.56c-.17.2-.37 0-.5-.05a12.86 12.86 0 0 0-1.31-.81 12.83 12.83 0 0 1-1.32-.84c-1-.78-2.25-.63-3.44-.76a3.77 3.77 0 0 0 1.69 1.07 1.92 1.92 0 0 1 .61.22c.15.12.39.31.22.54s-.41.09-.6 0c-.94-.61-2-1-3-1.51a2.36 2.36 0 0 0-1.51-.26 12 12 0 0 0-3.75.73 17.85 17.85 0 0 1-2.37.8c-.82.2-1.66.32-2.51.47a28.4 28.4 0 0 0 2.9.52c.86.08 1.74 0 2.62 0h.57c.19 0 .6.07.59.37s-.4.25-.63.27c-.8.08-1.6-.1-2.56.06a5.21 5.21 0 0 0 3.72 1.31c.62-.07 1.25-.06 1.87-.07.29 0 .61.08.61.38s-.38.29-.62.29h-2.47a.43.43 0 0 0-.44.2 2.54 2.54 0 0 0 1.35.8 5.07 5.07 0 0 0 1.8.23q.45 0 .9-.06l.9-.12a2.54 2.54 0 0 1 .47-.07c.24 0 .47.11.47.36s-.25.26-.44.3c-.4.06-.8.08-1.18.15s-.63 0-.91.29a3 3 0 0 0 2.92.26c.49-.18 1-.33 1.5-.48a.33.33 0 0 1 .4.14c.11.2 0 .36-.21.44-.41.17-.83.31-1.35.49a2 2 0 0 0 1.68.32c.33-.06.61-.09.58.27s-.36.37-.65.34c-.48 0-.95-.11-1.48-.18 0 .49.52.5.67.8s.16.36 0 .5a.38.38 0 0 1-.54 0c-.57-.58-1.38-.92-1.92-1.5a3.21 3.21 0 0 0-1.79-.8c-.08.56.51.71.65 1.08.06.17.16.36 0 .49a.41.41 0 0 1-.61-.13c-.11-.14-.19-.31-.29-.46a9 9 0 0 0-3.66-3.19 4.16 4.16 0 0 0 .54 1.36c.12.19.16.45-.08.57-.41.2-.4-.18-.52-.37a10.23 10.23 0 0 1-.46-1.2 5.79 5.79 0 0 0-1-1.64 3.42 3.42 0 0 0-1.88-.94 8.38 8.38 0 0 0 1 2.15c.08.2.25.36.32.56s.17.44-.13.56-.42-.09-.52-.3-.05-.21-.08-.31a10 10 0 0 0-1.52-2.73 1.34 1.34 0 0 0-.76-.62 14.45 14.45 0 0 0-3.39-.74h-1.24l-1.24-.1-2.46-.22a1.65 1.65 0 0 0-1.12-.14c.36.55.74.45 1.14.12.39.91 1.35 1 2.17 1.29a13.21 13.21 0 0 1 1.7.6c.19.11.37.29.19.53s-.34.08-.51 0a3.06 3.06 0 0 0-1.71-.38 10.84 10.84 0 0 0 2.68 1.72c.61.21 1.23.39 1.85.58.24.07.43.23.35.46s-.38.2-.58.1a10.43 10.43 0 0 0-1.73-.63c-.19.34.1.52.25.72a6.09 6.09 0 0 0 3.18 2c.22.07.46.09.68.17s.45.25.33.47-.43.13-.63 0a6.17 6.17 0 0 0-1.93-.65 2.64 2.64 0 0 0 2.79 1.82h1c.35 0 .95-.08.94.37s-.58.23-.88.24c-.47 0-1-.07-1.65-.13a3.91 3.91 0 0 0 1.68 1.16 4.91 4.91 0 0 0 .58.15.32.32 0 0 1 .23.43c-.09.26-.32.16-.51.12a4.88 4.88 0 0 1-1.43-.75c-.16-.08-.27-.27-.59-.16 0 .43.07.88.08 1.33a.3.3 0 0 1-.35.35.24.24 0 0 1-.27-.28c.34-1.34-.56-2.21-1.35-3.12-.38.08-.2.34-.21.51s.16.68-.32.67-.28-.43-.26-.69a3.4 3.4 0 0 0-.7-2.31 7.69 7.69 0 0 1-.77-1.3c-.19.51 0 .89 0 1.27 0 .14 0 .3-.22.33a.38.38 0 0 1-.45-.26 1 1 0 0 1-.07-.42c.18-2.34-1.47-3.56-3.34-4.83a4.15 4.15 0 0 0 .64 1.53 3 3 0 0 1 .28.57.3.3 0 0 1-.25.41.31.31 0 0 1-.34-.23 9.8 9.8 0 0 0-1-2.22 4 4 0 0 0-1.36-1.35 11.16 11.16 0 0 0-2.74-1.32c-1-.32-1.93-.55-2.9-.81-.45-.13-.92-.21-1.37-.35a3.21 3.21 0 0 1-.69-.3 2 2 0 0 1-.63-.68 11 11 0 0 0 1.15.42 16.09 16.09 0 0 0 5.46.85 3.47 3.47 0 0 0 1.51-.44 3 3 0 0 0 1.1-1.09c.11-.18.2-.44.47-.3s.17.41 0 .65-.56.47-.63.94a5.24 5.24 0 0 0 2.79-.76 2.08 2.08 0 0 0 .8-1.34c.1-.32.08-.88.47-.82.56 0 0 .59.17.88v.17a1.21 1.21 0 0 0 .87-.66.82.82 0 0 1 .49-.4.48.48 0 0 1 .56.21c.09.19-.07.34-.21.45l-1.23.92c-.34.27-.67.54-1.22 1a4.54 4.54 0 0 0 2-.12c.21-.06.4-.2.62-.09s.38.24.33.49-.25.27-.44.26a9.13 9.13 0 0 0-1.38.08 6.37 6.37 0 0 1-1.38 0 8.27 8.27 0 0 0-2.36.21c.24.33.56.28.86.29s.43-.13.64 0 .27.27.2.46a.27.27 0 0 1-.36.16 21.53 21.53 0 0 0-3.3-.39c-.35 0-.63-.34-1.12-.11.38.17.71.3 1.08.02z" fill="#fff" stroke="#fff" stroke-miterlimit="10" stroke-width=".25" fill-rule="evenodd"/><path d="M147.87 102.45a9.66 9.66 0 0 0 2.57-1.43 6.42 6.42 0 0 0 1.28-1.27 6.13 6.13 0 0 0 .86-1.67 3.29 3.29 0 0 0-.23-2.94 1 1 0 0 0-.94-.56 2.14 2.14 0 0 0-1.64.73 11.07 11.07 0 0 0-2.12 4.14 12.91 12.91 0 0 1-.87 2.35 1 1 0 0 1-1.12.74 1.68 1.68 0 0 0-.7.1c-.49.13-1 .25-1.48.41a5.88 5.88 0 0 0-1.42.6.55.55 0 0 1 .17-.24 7.13 7.13 0 0 0 1.17-1.4 11.4 11.4 0 0 0 .85-1.67 5.26 5.26 0 0 0 .32-2.72 1.1 1.1 0 0 0-1-1 1.65 1.65 0 0 0-1.44.65 10.59 10.59 0 0 0-1.83 3.73 14.78 14.78 0 0 1-1.79 4 2.47 2.47 0 0 1-2.72 1 5.65 5.65 0 0 1-1.78-.53 9.4 9.4 0 0 1-1.58-1 4.68 4.68 0 0 0-1.86-1 .82.82 0 0 0-.85.32c-.15.35.13.5.32.69l.12.1a11.07 11.07 0 0 0 6.44 2.16 1.74 1.74 0 0 1 .87.2c1.13.64 2.3 1.14 3.46 1.73l1.16.59c.38.19.77.39 1.16.56a25.25 25.25 0 0 0 2.43.91 5.69 5.69 0 0 0 1.46.27 3.79 3.79 0 0 0 1.47-.25c.9-.34 1.23-.91.42-1.93 0-.06-.11-.1-.16-.16a4.65 4.65 0 0 0-1.34-1 8.57 8.57 0 0 0-1.55-.6 24.21 24.21 0 0 0-3.31-.73 13.61 13.61 0 0 0-3.38-.18c-.09 0-.2 0-.26-.15 1.28-.68 2.42-1.58 3.66-2.26a7.13 7.13 0 0 1 1.07-.45c.37-.12.75-.21 1.12-.31a1 1 0 0 1 1.16.46c.52.81 1.07 1.62 1.61 2.42a16 16 0 0 0 2.74 3.26 3.64 3.64 0 0 0 2.52.83c1 0 1.39-.63 1.07-1.63a3.37 3.37 0 0 0-.93-1.48 21.28 21.28 0 0 0-4.05-2.81 10.57 10.57 0 0 1-1.52-.89 6.63 6.63 0 0 1 2.22.6 5.46 5.46 0 0 1 2.71 1.81c.67 1 1.69 1.74 2.44 2.71a6.92 6.92 0 0 0 2.86 2 2.7 2.7 0 0 0 1 .27c.73 0 1.09-.31 1-1a2.58 2.58 0 0 0-1.49-1.94c-.43-.26-.88-.5-1.33-.72l-.68-.3c-.23-.11-.47-.21-.71-.3a4 4 0 0 1-1.32-.69 19 19 0 0 0 2.15.42 20.59 20.59 0 0 1 2.16.34 2 2 0 0 1 .8.4 14.75 14.75 0 0 0 2 1.28c.68.36 1.39.7 2.1 1a2.52 2.52 0 0 0 1.83.1 1 1 0 0 0 .74-.56 1 1 0 0 0-.25-.89 2.74 2.74 0 0 0-1.33-.88 12 12 0 0 0-3.25-.7 2.21 2.21 0 0 1-1.29-.33A7.08 7.08 0 0 0 162 105a1.1 1.1 0 0 1 1.24-.08c.61.26 1.23.55 1.86.75a7.68 7.68 0 0 0 2 .34 2.47 2.47 0 0 0 .9-.09c.38-.15.46-.44.23-.8a2.3 2.3 0 0 0-1-.78 6.29 6.29 0 0 0-2-.52c.09-.21.22-.2.33-.24a6.4 6.4 0 0 1 2.35 0 4.24 4.24 0 0 0 1.07 0 2.3 2.3 0 0 0 1-.41.7.7 0 0 0-.05-1.28 1.83 1.83 0 0 0-1.27-.25 29.28 29.28 0 0 0-3.34.62c0-.31.29-.39.43-.58a2.21 2.21 0 0 0 .59-1.19 1 1 0 0 0-.27-.92.8.8 0 0 0-.94 0 1.59 1.59 0 0 0-.72.79l-.42.93-.44.9a10.19 10.19 0 0 1-1.35 2.24 1.65 1.65 0 0 1-1.27.71 2.21 2.21 0 0 1 .65-.62 4.7 4.7 0 0 0 1.42-1.82 1.29 1.29 0 0 0-.19-1.5 1.41 1.41 0 0 0-2-.13 2.85 2.85 0 0 0-.63.82c-.61 1-.91 2.22-1.43 3.32a.81.81 0 0 1-.84.56 14.05 14.05 0 0 1-5.2-1.07c-.13 0-.34 0-.33-.32a18.26 18.26 0 0 0 3.26-1 3.78 3.78 0 0 0 2.32-2.13 1.91 1.91 0 0 0-.24-1.89 1.22 1.22 0 0 0-1.51-.4 2.38 2.38 0 0 0-.83.52 7.56 7.56 0 0 0-1.3 1.45c-.38.54-.79 1.07-1.19 1.61a4.48 4.48 0 0 1-1.94 1.26.37.37 0 0 1-.35-.06 17.38 17.38 0 0 0-3.15-1.07 4.29 4.29 0 0 1 .42-.22zm18.07.55c.12-.19.28-.18.46-.11a9.78 9.78 0 0 1 1.53-.14c.13 0 .26 0 .25-.2s-.14-.17-.26-.22-.33.08-.48-.11a4.58 4.58 0 0 1 1-.21 2.53 2.53 0 0 1 1 .07c.18 0 .41.1.41.36a.48.48 0 0 1-.36.44 2.83 2.83 0 0 1-.41.14 4.38 4.38 0 0 1-1.35.07 6.74 6.74 0 0 1-1.33-.23.6.6 0 0 1-.46.14zm-16.41-4.16c-.26-.11-.35.11-.43.26-.36.66-.84 1.24-1.15 1.94a1 1 0 0 1-.5.58 14 14 0 0 1 2.42-5.88 2.28 2.28 0 0 1 .86-.63 1.09 1.09 0 0 1 1.18.11 1.94 1.94 0 0 1 .53 1.36 4.48 4.48 0 0 1-1.12 3.06 8.27 8.27 0 0 1-3.18 2.27h-.24c.5-1.11 1.2-1.99 1.63-3.07zm-7.82 8.72c.47.19.93.44 1.41.65s1 .42 1.5.6a6.35 6.35 0 0 0-1.82-1.12 15.73 15.73 0 0 0-2.67-1.08 9.5 9.5 0 0 1 2.61.19 16 16 0 0 1 4.13 1.09 5.39 5.39 0 0 1 1.77 1.18c.62.65.52 1.1-.36 1.41a4.1 4.1 0 0 1-2.45-.11 9 9 0 0 1-1.79-.61c-.58-.25-1.14-.51-1.71-.79-1.19-.55-2.3-1.22-3.42-1.83a.39.39 0 0 1-.26-.33 29.05 29.05 0 0 1 3.06.75zm-1.33-3.76a5.94 5.94 0 0 0 .88-1.6c.23-.61.63-1.09.89-1.66.06-.12.15-.25 0-.34s-.24 0-.3.18a33.7 33.7 0 0 1-2.12 3.68.55.55 0 0 1-.3.28 3.39 3.39 0 0 1 .5-1.2c.54-1.12.73-2.36 1.2-3.49a9.75 9.75 0 0 1 1.22-2.14 1.14 1.14 0 0 1 1.06-.53c.55 0 .83.35.86 1a5.94 5.94 0 0 1-.35 2.25 7.53 7.53 0 0 1-1.08 1.94 14.51 14.51 0 0 1-2.94 2.57 2 2 0 0 1 .48-.94zm9.17 2.66a11.6 11.6 0 0 0 1.24 1.17c.15-.32 0-.46-.19-.61-.65-.61-1.16-1.34-1.75-2a2 2 0 0 1-.45-.75 6.44 6.44 0 0 1 1.85 1c.34.21.67.43 1 .67s.65.49 1 .72a3.6 3.6 0 0 1 1.36 1.88c.22.72 0 1-.74 1.06a3.2 3.2 0 0 1-2.37-.92 16 16 0 0 1-2.42-2.93c-.37-.54-.71-1.09-1.06-1.66a1.49 1.49 0 0 1-.29-.73c.28.24.54.49.79.74s.48.5.71.77c.43.53.86 1.07 1.32 1.59zm6.38-4.77l-.09-.13c-1.15.59-2.07 1.67-3.37 2.11 1.18-1.11 1.83-2.65 2.94-3.72a2.63 2.63 0 0 1 .86-.6 1 1 0 0 1 1.15.3 1.29 1.29 0 0 1 .22 1.36 3.09 3.09 0 0 1-1.27 1.59 6 6 0 0 1-.6.33c-.21.1-.42.18-.64.26a12.82 12.82 0 0 1-1.4.42c.81-.7 1.51-1.29 2.2-1.92zm1.17 7.31c.12-.54.12-.55-.25-.84a18.48 18.48 0 0 1-1.87-1.54 4.33 4.33 0 0 1 1.17.42 9.21 9.21 0 0 1 2.43 1.39 4.45 4.45 0 0 1 .48.49.83.83 0 0 1 .18 1c-.24.4-.67.31-1 .16-.54-.25-1.11-.45-1.63-.74a3.34 3.34 0 0 1-1.31-1.25 4.56 4.56 0 0 0-.53-.55c-.14-.15-.27-.31-.4-.46s-.11-.12 0-.28c.43.37.91.69 1.37 1 .24.17.47.36.69.55a7.23 7.23 0 0 1 .67.65zm2.7-5.39a6 6 0 0 1 .9-1.91 1 1 0 0 1 1.54-.42.85.85 0 0 1 .37 1.27 4.44 4.44 0 0 1-1.14 1.37 7 7 0 0 1-1.35 1 6.15 6.15 0 0 1 .64-1.06 4.55 4.55 0 0 0 .48-.9 3.54 3.54 0 0 0-.94 1 4.9 4.9 0 0 1-.89 1 7.39 7.39 0 0 0 .39-1.31zm4.78 3.79a3.55 3.55 0 0 1 .53.32.9.9 0 0 1 .43.78c-.06.36-.45.28-.71.34a1.63 1.63 0 0 1-1 0 18.44 18.44 0 0 1-2.14-1c-.35-.2-.69-.39-1-.6l-1-.67c.38-.19.59 0 .82.17.88.51 1.76 1 2.68 1.46.2.1.52.39.67.09s-.29-.31-.48-.44c-.63-.43-1.32-.75-2-1.17a8.72 8.72 0 0 1 3.2.76zm1.31-2.29c.13 0 .32.09.35-.14s-.15-.24-.3-.27a5.08 5.08 0 0 1-1.29-.32.44.44 0 0 1 .46-.2 4.74 4.74 0 0 1 2.27.66 3.26 3.26 0 0 1 .36.29c.07.07.15.14.12.26a.27.27 0 0 1-.29.19 8.14 8.14 0 0 1-2.36-.37c-.21-.07-.41-.16-.62-.25v-.12c.41.16.86.23 1.3.31zm-1-4.08c-.54.1-.5.77-.92 1a8.81 8.81 0 0 1 .88-2 .64.64 0 0 1 .53-.3c.41-.07.59.11.52.55a1.84 1.84 0 0 1-.38.88 4.65 4.65 0 0 1-.83.83c-.03-.34.23-.56.24-.92zm-34.5 2.97a3.7 3.7 0 0 1 2 1.09 3.65 3.65 0 0 1-2-1.09zM149.31 132.87a4 4 0 0 0-.08 1.28 1.6 1.6 0 0 0 2.39 1.13c1.17-.47 2.3-1 2.41-2.29 0-.11.13-.17.26-.19a4.25 4.25 0 0 0 2.56 1.45c1.53.28 2.85-.57 2.89-1.89a3.43 3.43 0 0 0-.46-2c-.16-.26-.41-.51-.31-.92.69.16 1.33.28 2 .44a4.26 4.26 0 0 0 2.29-.16 1.55 1.55 0 0 0 .79-2.57 5.2 5.2 0 0 0-1.67-1.18c-.3-.14-.68-.18-.89-.58a5.17 5.17 0 0 0 1.79-.58 5.82 5.82 0 0 0 1.37-1.15c.55-.61.48-1.11-.21-1.53a3.76 3.76 0 0 0-1.3-.43 8.61 8.61 0 0 0-3.12 0 7.41 7.41 0 0 1-1.61.15 2.79 2.79 0 0 1 1.13-.5 7 7 0 0 0 3.4-2.31c.26-.33.54-.67.3-1.08s-.67-.39-1.08-.45a3.49 3.49 0 0 0-.56 0 14.26 14.26 0 0 0-5.5 1.22 10.46 10.46 0 0 0-3.78 2.12 1.31 1.31 0 0 1-1.3.4 3.17 3.17 0 0 0-1.37.07 1.82 1.82 0 0 1-1.32-.1 7 7 0 0 0-1.32-.41c-.26 0-.69-.07-.73.33s.3.49.6.56.62 0 .92.07c.71.14.88.34.62 1a1.71 1.71 0 0 0 .12 1.83c.3.4.11.68-.19.93a19.26 19.26 0 0 0-2.85 3.53 3.37 3.37 0 0 0-.58 2.47 1.3 1.3 0 0 0 .9 1.07 2.62 2.62 0 0 0 1.83.05 4.72 4.72 0 0 0 1.83-1.28c-.1.68-.11 1.09-.17 1.5zm5.35-.8a5.19 5.19 0 0 1-.41-1.78 7.61 7.61 0 0 0-.89-3.63c-.11-.21-.31-.44-.12-.74a4.24 4.24 0 0 1 1.89 1.73 9.39 9.39 0 0 1 1.6 3.44c.16.88.89 1.58 1 2.48a2.65 2.65 0 0 1-3.07-1.5zm-3.23-5.39a31.56 31.56 0 0 0 .52 4.12 6.75 6.75 0 0 1 0 2.76c0 .14-.17.3-.12.41.26.55 0 .77-.64.83s-1-.09-1.21-.66a3.75 3.75 0 0 1 0-1.7c.4-2.15.66-4.3.87-6.46a9.41 9.41 0 0 1 .24-1 4.81 4.81 0 0 1 .34 1.7zm8.86-6.23a23.48 23.48 0 0 1-3.43 1.17l-.89.22-.89.15c-.6.09-1.21.17-1.82.24a1.57 1.57 0 0 1-1-.11 24.6 24.6 0 0 1 2.53-1.14c.42-.17.84-.31 1.27-.47l1.28-.47c1.71-.59 3.43-1.08 5.13-1.6a4.61 4.61 0 0 1-2.18 2.01zm.83 7.55a10.21 10.21 0 0 0 2.28.34c.16 0 .33 0 .38.16a.39.39 0 0 1-.16.39 3 3 0 0 1-2.2.52c-1.87-.27-3.69-.65-5-1.94-.42-.42-.92-.8-1.38-1.19l.07-.11c1 .36 2 .65 3 .94zm-11.33-2a16.18 16.18 0 0 1-2.52 4.34 2.87 2.87 0 0 1-1.75 1.09 3.58 3.58 0 0 1 .57-2.24 22.7 22.7 0 0 1 3.54-4.13.9.9 0 0 1 .23-.07c.2.33.02.65-.07 1.01zm10.31-3.76a7.45 7.45 0 0 1 2.9 0c.35.07.79 0 1 .52a7.66 7.66 0 0 1-.94.25c-.31.07-.63.1-.94.14l-1.9.16c-2 .17-4 .62-6-.15l1.51-.24c.5-.07 1-.17 1.47-.25.99-.15 1.95-.3 2.9-.45zm3.31 5.31a8.52 8.52 0 0 1-3.57-.36 22.64 22.64 0 0 1-2.3-.73 11.69 11.69 0 0 1-2.07-1 17.73 17.73 0 0 1 2.41 0 14.58 14.58 0 0 1 2.35.41 6.19 6.19 0 0 1 3.18 1.66zm-2-2.65a22.77 22.77 0 0 1-7.13-.86 14.65 14.65 0 0 0 2.38.16c.8 0 1.59-.07 2.38-.14s1.59-.15 2.39-.24 1.59-.15 2.38-.28a2.92 2.92 0 0 1-2.43 1.34zm-7.9 8a1.08 1.08 0 0 1-.61 1 70.28 70.28 0 0 1-.81-7.66 10.6 10.6 0 0 1 1.39 6.68zm5.21.35c-1.34-1.35-1.54-3.11-2.42-4.9 2.89 2.06 3.61 3.43 2.39 4.92zm-12.17-1.05c.19-.9 1.36-1.18 1.6-2s1.06-1.29 1.48-2.09a4.17 4.17 0 0 1-.66 2.93 3.06 3.06 0 0 1-2.45 1.18zm6.93-11.4a16.45 16.45 0 0 1 7.36-2.66c-2.39 1.05-4.95 1.77-7.39 2.68zm-4 1.8c.32-.27.34-.82.95-.83.42 0 .58.12.43.48-.31.75-1 1.29-1.41 2.16a2.19 2.19 0 0 1-.47-1.08c-.04-.24.12-.44.45-.71zM23.4 31.1a2.49 2.49 0 0 0-1.55.13 2.88 2.88 0 0 0-1.16 1.07 3 3 0 0 0-.44 2.91 3.38 3.38 0 0 0 2.68 2.19 1.46 1.46 0 0 0 1.38-.61c1.1-1.43.16-2.5-1-2.92-.48-.18-.93.15-1.13.69a1 1 0 0 0 .49 1.21c.13.06.26.1.38 0a.32.32 0 0 0 0-.46 3.76 3.76 0 0 1-.28-.29.39.39 0 0 1 0-.3.31.31 0 0 1 .35-.16 1.24 1.24 0 0 1 1 .81 1.09 1.09 0 0 1-.4 1.23.92.92 0 0 1-1.15.16A3.45 3.45 0 0 1 20.81 35a2.44 2.44 0 0 1 .44-2.49 1.94 1.94 0 0 1 2-.85 4.08 4.08 0 0 1 3.24 2.63 64.18 64.18 0 0 0 3 6.52 10.22 10.22 0 0 1-2.38-1.45 3.3 3.3 0 0 0-2-.61 11.14 11.14 0 0 0-1.62.12 13.5 13.5 0 0 0-1.62.37 38.38 38.38 0 0 1-4.93 1.26 11 11 0 0 1-1.27.14 3.76 3.76 0 0 1-1.25-.1A10.13 10.13 0 0 1 11 39.39c-.17-.12-.36-.19-.5 0s0 .37.15.51c.74.81 1.44 1.64 2.18 2.41A11.42 11.42 0 0 0 14 43.45a8.33 8.33 0 0 0 1.36.92 4.08 4.08 0 0 0 4-.08 29.63 29.63 0 0 0 2.85-1.73A5.83 5.83 0 0 1 26 41.49a10.79 10.79 0 0 1 3 .51 7.5 7.5 0 0 1 2.5 1.53c.31.3.69.54 1 .82.16.13.43.21.39.5 0 0-.06.08-.08.07-.37 0-.75-.06-1.11-.13A8.2 8.2 0 0 0 26.33 46a7.68 7.68 0 0 0-3.54 3.8 4.91 4.91 0 0 1-3.92 2.89 6.18 6.18 0 0 1-1.52.21.42.42 0 0 0-.42.22.36.36 0 0 0 .16.47 1.53 1.53 0 0 0 .21.14c.49.22 1 .44 1.47.64a7.65 7.65 0 0 0 1.52.56c2 .51 4.77-.75 6.08-2.93a38.48 38.48 0 0 1 2.42-3.88 5.49 5.49 0 0 1 2.53-1.86 4.49 4.49 0 0 1 1.5-.24 4.14 4.14 0 0 1 1.49.31 11.58 11.58 0 0 1 3.92 2.6 2 2 0 0 0 1.1.65c.21 0 .41.12.56-.12a.59.59 0 0 0 0-.77 3.76 3.76 0 0 0-.31-.25 8.29 8.29 0 0 0-1.53-1.11c-.54-.33-1.08-.64-1.61-1s-1.06-.48-1.38-1a5.39 5.39 0 0 1-.68-1.66 5 5 0 0 1-.06-1.81 1.84 1.84 0 0 1 1.54-1.68 7.52 7.52 0 0 1 3.27.25 9.77 9.77 0 0 1 4 2.61 19.38 19.38 0 0 0 5.24 3.86c.26.15.51.15.67-.09s0-.46-.26-.59a10.11 10.11 0 0 1-3.49-3.8c-.12-.19-.24-.38-.37-.56s-.27-.36-.41-.53c-.29-.34-.58-.67-.88-1-.61-.65-1.25-1.26-1.91-1.86a8.59 8.59 0 0 0-1.21-.92 6.48 6.48 0 0 0-1.33-.63 8.84 8.84 0 0 0-2.92-.53 2.84 2.84 0 0 0-2.2.85 7.34 7.34 0 0 0-2 4.71c0 .21.14.46-.12.64-.42-.19-.57-.6-.82-.92a2.87 2.87 0 0 1-.58-2.07 3.18 3.18 0 0 1 1-2 23.1 23.1 0 0 1 2-1.61 6.47 6.47 0 0 0 2.73-6.35 16.16 16.16 0 0 0-1.6-4.5 7.62 7.62 0 0 0-1.41-2 14.72 14.72 0 0 1-1.53-1.91.46.46 0 0 0-.6-.2c-.3.17-.22.46-.06.67 1 1.22 1 2.7 1.53 4a4 4 0 0 1 .08 2 12 12 0 0 1-1.43 3.58 25.65 25.65 0 0 0-2.07 5.6 15.65 15.65 0 0 0-.18 1.58c-1.32-2-1.79-4.21-2.56-6.28a.34.34 0 0 1 0-.1c-.2-.9-.37-1.81-.63-2.7a12.29 12.29 0 0 1-.39-4.18 6.24 6.24 0 0 1 .74-2.65 9.33 9.33 0 0 1 3.28-3.5 7.62 7.62 0 0 0 2.73-2.68c.43-.74.65-1.59 1.16-2.3a1 1 0 0 0 0-1.16 5.52 5.52 0 0 1-1.77 1.48 16.22 16.22 0 0 1-2.14.92 8.62 8.62 0 0 0-5.56 6.88c0 .23.06.52-.31.67a25.79 25.79 0 0 0-1-2.51c-.2-.41-.4-.82-.62-1.21s-.46-.77-.71-1.15a12.83 12.83 0 0 1-1.63-3.4 2.32 2.32 0 0 1 .87-3.05 2.45 2.45 0 0 1 3.7 1.46 3.45 3.45 0 0 1 0 1.72c-.18.75-.55 1.15-1.09 1.16a1.83 1.83 0 0 1-1.5-1.09c-.17-.33-.29-.68.06-.87s.65 0 .82.36.29.34.54.19a.39.39 0 0 0 .14-.56 2.11 2.11 0 0 0-1.71-.77 1.08 1.08 0 0 0-.67 1.5 3.11 3.11 0 0 0 1 1.33 2.06 2.06 0 0 0 1.76.36 1.73 1.73 0 0 0 1.19-1.21 4.38 4.38 0 0 0 .18-1.72c-.17-1.83-2.34-3.35-4-2.75a3 3 0 0 0-2 4c.13.46.45.88.37 1.38a.78.78 0 0 1-.51-.25 8.23 8.23 0 0 1-1.92-2.56 5.68 5.68 0 0 1-.47-3 6.31 6.31 0 0 0-1.82-5 40.91 40.91 0 0 1-3.33-4c-.2-.31-.44-.58-.66-.86a.44.44 0 0 0-.61-.17c-.25.16-.13.38 0 .58s.24.32.37.47A8.31 8.31 0 0 1 12 4.59a16.77 16.77 0 0 1 .53 2.59 8.3 8.3 0 0 0 .35 1.66 9.78 9.78 0 0 0 .62 1.58 12.88 12.88 0 0 0 2 2.82c.24.26.53.5.53.91h-.51l-.45-.15a13.37 13.37 0 0 1-3.56-1.15A19.5 19.5 0 0 1 8.29 11c-.87-.64-1.7-1.33-2.55-2a31.79 31.79 0 0 0-2.68-1.87A10.08 10.08 0 0 1 1 6c-.19-.18-.42-.43-.72-.15s0 .57.21.82a3.87 3.87 0 0 1 .92 1.51 6.87 6.87 0 0 0 1.21 2.34A9.07 9.07 0 0 0 4.22 12 10.14 10.14 0 0 0 6 13.17a11.76 11.76 0 0 0 4.09 1.13 21 21 0 0 0 5.21.51 2.17 2.17 0 0 1 .88.18 6.75 6.75 0 0 1 1.54.71 11.6 11.6 0 0 1 1.33 1 13.11 13.11 0 0 1 2.18 2.46c.15.21.39.43.31.74-.3 0-.39-.25-.54-.4a8.15 8.15 0 0 0-2.56-1.86A7.52 7.52 0 0 0 17 17.1a7 7 0 0 0-1.61-.19 14.17 14.17 0 0 0-3.86.79 6 6 0 0 1-2.39.23A4.6 4.6 0 0 1 6.87 17a1.62 1.62 0 0 0-.36-.21.31.31 0 0 0-.38.13.32.32 0 0 0 0 .3 1.27 1.27 0 0 0 .43.46 5.34 5.34 0 0 1 1.36 1 6.52 6.52 0 0 0 1.42.95 8.56 8.56 0 0 0 2.8.78 11.76 11.76 0 0 0 2.9-.1 13 13 0 0 1 3.69 0 4.19 4.19 0 0 1 2.44 1.19 15.87 15.87 0 0 1 1.75 2.22 1.88 1.88 0 0 1-1-.41 2.83 2.83 0 0 0-3.26.11c-.49.36-.88.75-.75 1.41a2 2 0 0 0 1.3 1.43 1.21 1.21 0 0 0 1.33-.44 1.05 1.05 0 0 0 0-1.21.41.41 0 0 0-.55-.21.36.36 0 0 0-.13.47 1.85 1.85 0 0 1 .16.4.27.27 0 0 1-.2.33c-.51.14-.8-.17-1.06-.54s-.35-.59 0-.94a2.43 2.43 0 0 1 3.24-.03 7.82 7.82 0 0 1 2 2.67c.1.2.3.42.05.68a6.43 6.43 0 0 0-5.9.75A17.1 17.1 0 0 0 15 31.1a9.19 9.19 0 0 1-5.18 2.71 1.9 1.9 0 0 0-1.2.44 2 2 0 0 0 1.07.3 1.9 1.9 0 0 1 .94.2 3.52 3.52 0 0 0 1.39.43 14.57 14.57 0 0 0 1.47.06A5.45 5.45 0 0 0 18 32.91c.29-.4.6-.8.91-1.19a13.06 13.06 0 0 1 2.05-2 1.53 1.53 0 0 1 1.3-.3 3.22 3.22 0 0 1 .78.24 3 3 0 0 1 .63.43 6 6 0 0 1 1 1.19c-.5.16-.88-.1-1.27-.18zm-9.12 10.83L15 42l.71.06c.48 0 1 .08 1.45.09a9.32 9.32 0 0 0 3-.37c.57-.18 1.15-.33 1.73-.48s1.15-.29 1.72-.47a5.7 5.7 0 0 1 4.23.18 3.92 3.92 0 0 1-1.53 0 6.08 6.08 0 0 0-4.43 1.23c-.61.41-1.2.83-1.84 1.22-2.1 1.26-3.75 1.25-5.36-.13-.27-.24-.56-.46-.84-.71a5.84 5.84 0 0 1-.8-.84c.54-.27.83.14 1.24.15zm13.22 5.55a10.41 10.41 0 0 0-1 1.07 23.34 23.34 0 0 1-3.72 3.65 3.31 3.31 0 0 1-1.44.74c-.74.15-1.44.27-2.29.47.2-.39.43-.37.62-.44a6.15 6.15 0 0 0 3.75-3.28c1.37-3.07 3.92-3.86 6.72-4.35a25.6 25.6 0 0 0-2.64 2.14zm5.19-11.57a14.11 14.11 0 0 0-2.57 2.23 2.75 2.75 0 0 1 .6-2 9 9 0 0 1 1.07-1.33 8.45 8.45 0 0 0 2.72-6.95v-1c0-.05.09-.09.13-.14 2.1 3.55 1.16 7.14-1.95 9.19zm-12 17.71a4.29 4.29 0 0 0 2.45-1.1 31.26 31.26 0 0 0 4-4 11.62 11.62 0 0 1 1.53-1.29c-1 1.52-1.93 3-2.79 4.62-1.07 1.93-4.11 3.16-5.49 2.43-.27-.14-.64-.11-.9-.35a2.28 2.28 0 0 1 1.24-.31zm21.77-13a14.77 14.77 0 0 0-5.15-2.31 4.6 4.6 0 0 0-2.62.29 2 2 0 0 0-1.31 1.3.92.92 0 0 1-.56.66 6.84 6.84 0 0 1 1.54-3A2.3 2.3 0 0 1 36 36.9a8.78 8.78 0 0 1 3.3.64 6.31 6.31 0 0 1 1.44.84 8.74 8.74 0 0 1 1.28 1.17c.54.59 1.17 1.07 1.76 1.61l-.18.2zM33.83 26a9.81 9.81 0 0 1-.45 5.54 8.76 8.76 0 0 1-1.11 1.83c-.67.85-1.44 1.62-2.11 2.49a6 6 0 0 1 .5-1.93 43.66 43.66 0 0 1 2-4.15 6.5 6.5 0 0 0 .55-4.53c0-.15-.15-.34.08-.52a2 2 0 0 1 .54 1.27zM16.5 32.19a9.48 9.48 0 0 0 1.64-1.65 4.79 4.79 0 0 1 2.72-1.74c-.31.55-.8.76-1.15 1.11a25.71 25.71 0 0 0-2.46 2.94 4.53 4.53 0 0 1-2.13 1.5 4.4 4.4 0 0 1-1.29.25 4.68 4.68 0 0 1-.65 0 5 5 0 0 1-.66-.1c.35-.21.7-.4 1.05-.59l1-.51a11.63 11.63 0 0 0 1.93-1.21zm7.18-3.47a4.27 4.27 0 0 0-4.79.29 8.51 8.51 0 0 0-1.2 1.2A8.39 8.39 0 0 1 14 33a8 8 0 0 1-1.79.82c-.08-.15.06-.19.13-.22a12.14 12.14 0 0 0 2.37-1.56 20.13 20.13 0 0 0 2.05-2 8.58 8.58 0 0 1 4.45-2.52 3 3 0 0 1 2 .1 2.24 2.24 0 0 1 .75.56 3.79 3.79 0 0 1 .54.93 1.94 1.94 0 0 1-.82-.39zM20.91 41a11.69 11.69 0 0 1-4.31.51c-.27-.05-.56 0-.81-.28a45.83 45.83 0 0 0 6.72-1.61 7.15 7.15 0 0 1 2.72-.29 1.68 1.68 0 0 1 1.46.66 6.56 6.56 0 0 0-3 .22l-1.4.41a11.75 11.75 0 0 1-1.38.38zm-7.67-23.25a7.84 7.84 0 0 1 1.63-.28 5.54 5.54 0 0 1 1.58.1 8.35 8.35 0 0 1 3 1.28 3.6 3.6 0 0 1 .41.37v.21a.94.94 0 0 1-.69-.24 4.46 4.46 0 0 0-3.17-.57c-.79.1-1.59.17-2.39.23s-1.59.1-2.38.17a1.82 1.82 0 0 1-1.46-.46 17.37 17.37 0 0 0 3.47-.81zm21.14 21.74a2.5 2.5 0 0 1 1.85-.69 5.93 5.93 0 0 1 2.64.44 13.56 13.56 0 0 1 5 3.44c.45.59 1 1.07 1.52 1.65a11.14 11.14 0 0 1-2.22-2 12.47 12.47 0 0 0-2.78-2 5.75 5.75 0 0 0-2.24-.68 20.32 20.32 0 0 0-2.34 0 2.44 2.44 0 0 0-2 2.42c0 .65 0 1.31.08 2.13-1.21-1.94-.53-3.46.49-4.71zm-5.15-21A10.08 10.08 0 0 0 25.8 22a9.36 9.36 0 0 0-1 3.65.57.57 0 0 1-.35-.62 5.49 5.49 0 0 1 .39-1.88 17.57 17.57 0 0 1 2.05-3.85 5.3 5.3 0 0 1 1.75-1.43A5.39 5.39 0 0 0 31 16a1.11 1.11 0 0 1 .87-.49 7.36 7.36 0 0 1-2.64 2.96zm-19.89-4.8a14.26 14.26 0 0 1-4.94-2.28 5.75 5.75 0 0 1-1.95-2.59 8.36 8.36 0 0 1 1.69 1.38c.25.25.51.5.78.74a6.36 6.36 0 0 0 .87.68 40.77 40.77 0 0 0 3.86 1.92.28.28 0 0 1-.31.15zm.95-.59A15.43 15.43 0 0 1 3 8c2.77 1.47 4.71 3.77 7.29 5.1zm20 2.72a3 3 0 0 1-1.65 1.36A7.27 7.27 0 0 0 25 21.37a1.86 1.86 0 0 1-.28.39 7 7 0 0 1 5.56-5.94zm-16-10a5.44 5.44 0 0 1 1.3 5 10.81 10.81 0 0 1-1.34-5.01zM12.1 19.54c1.45 0 2.9-.26 4.33-.36a4.22 4.22 0 0 1 2.4.46c-.45.31-.9.1-1.28.06a9.8 9.8 0 0 0-2.6.1 11.42 11.42 0 0 1-3.25 0 .39.39 0 0 1 .4-.26zM13 5.19c.87 1.95.93 4.15 1.9 6.1-1.58-1.84-1.58-4.02-1.9-6.1zM46 63.41c-.36.22-.16.53-.07.79a42.14 42.14 0 0 0 2.29 5.33c0 .1.11.28.16.28a.93.93 0 0 1 .82.47 4.86 4.86 0 0 0 .57.76c.68.57 1.56.6 2.29 1 .31.18.75-.17 1.11-.32.18-.07.27-.39.53-.24s.2.44.16.69 0 .21-.05.31c.68.16 1.11-.25 1.58-.56.18-.12.31-.3.48-.43a.38.38 0 0 1 .48-.07c.19.14 0 .33 0 .51s-.13.18 0 .32c.65-.59 1.65-.56 2.2-1.25a.34.34 0 0 1 .55.1c.13.21 0 .3-.18.41s-.54.45-.8.68c.17.26.4.19.61.21.5 0 1.05-.15 1.41.45.08.13.47.06.71.11a.31.31 0 0 1 .28.38.29.29 0 0 1-.3.25c-.35 0-.7 0-1-.06-.26.18 0 .41-.12.61a.36.36 0 0 1-.58.23 3.26 3.26 0 0 1-.73-.47 3.58 3.58 0 0 0-3.83-.56 1.72 1.72 0 0 0 1.41.61h.43a.53.53 0 0 1 .32.71c-.09.27-.33.22-.55.13l-2-.83c-.2.11 0 .24 0 .35s0 .4-.14.49-.33 0-.46-.21c-.9-1.14-2.28-1.63-3.33-2.59-.07-.07-.19-.07-.53-.17a19.62 19.62 0 0 0 2.49 3.27A25 25 0 0 0 55 77.45a5.62 5.62 0 0 0 2.79.93c.83.09.92 0 1-.87 0-.32-.1-.67.19-.92a.35.35 0 0 1 .27-.11.32.32 0 0 1 .17.25 4.35 4.35 0 0 0 0 1.08c0 .37.22.52.58.45l.53-.11c.83-.23.83-.26.73-1.11a3.24 3.24 0 0 1-.08-1.16c0-.17.05-.39.29-.39s.23.22.24.38a4.33 4.33 0 0 0 .29 1.65 4.81 4.81 0 0 0 1.43-.79.65.65 0 0 0 .33-.81c-.07-.35-.15-.69-.2-1s.08-.54.46-.61c.26.48 0 1.15.49 1.56.69-.08.82-.83 1.33-1.14.18-.11.05-.39 0-.58a5.07 5.07 0 0 1-.34-1.52.35.35 0 0 1 .26-.41c.24 0 .29.13.32.31a2.85 2.85 0 0 0 .48 1.6c.27-.16.53-.33.81-.48a2.08 2.08 0 0 0 1.45-2 .82.82 0 0 1 .48-.87.82.82 0 0 1 .1.79 1.4 1.4 0 0 0-.08.74 1.15 1.15 0 0 0 1-.57c.25-.38.55-.74.84-1.1.15-.18.32-.46.59-.26s0 .36-.06.55a1 1 0 0 0-.11.26c.32.16.56-.28.83-.19a.23.23 0 0 1 0 .38c-.31.25-.44.43-.16.84s.15.72-.48.71a5.85 5.85 0 0 0-2.42.18c0 .36.26.32.46.33s.4-.16.59 0 .51.29.37.64-.4.12-.62.07a14.26 14.26 0 0 0-1.61-.29 1.43 1.43 0 0 0-1.15.42c.34.28.63 0 .91 0a.29.29 0 0 1 .27.27.31.31 0 0 1-.19.35c-.23.06-.48 0-.72.09a3 3 0 0 0-2.28 1.15.41.41 0 0 0 .5 0c.25-.12.41-.08.48.2s-.09.41-.33.44a18.34 18.34 0 0 0-2.26.59c-.17 0-.35.06-.4.36a1.5 1.5 0 0 0 .89 0 .32.32 0 0 1 .44.18c0 .2-.1.33-.25.44a1.27 1.27 0 0 1-.83.15 17.41 17.41 0 0 0-2 .09 2.61 2.61 0 0 0-1.06.3c.25.31.55.23.81.26a3.3 3.3 0 0 1 .64.07c.21.06.24.26.22.44s-.19.28-.38.24c-1.07-.22-2.15-.44-3.22-.71a1.14 1.14 0 0 0-.92 0A16.92 16.92 0 0 0 66 81.11a8 8 0 0 0 3.38-1.28c.23-.12.2-.34.1-.56-.18-.38-.36-.76-.5-1.15a.41.41 0 0 1 .18-.55c.31-.14.31.16.38.34a1.68 1.68 0 0 0 .21.47c.23.25.14.87.71.72a1.2 1.2 0 0 0 .85-1.44c-.07-.34-.32-.62-.26-1a.31.31 0 0 1 .25-.29.25.25 0 0 1 .33.16c.16.34.09.76.35 1.07 1.24-.63 1.34-.88 1-2.08a2.07 2.07 0 0 1-.18-.52.36.36 0 0 1 .25-.31c.16-.07.24 0 .31.17s.12.54.39.71a1.76 1.76 0 0 0 .74-2.09.61.61 0 0 1 0-.3A.28.28 0 0 1 75 73a5.76 5.76 0 0 1 .3.61c1-.71 1-.81.88-1.72 0-.19-.17-.4.1-.54s.42.06.49.3a.4.4 0 0 0 .28.28c.61-.27.7-.81.75-1.36v-.6c0-.2 0-.35.26-.38s.19.12.24.24 0 .54.26.72c.37 0 .58-.36.82-.61a1.35 1.35 0 0 1 .6-.4.26.26 0 0 1 .32.12.34.34 0 0 1 0 .46c-.24.21-.5.39-.74.57 0 .28.2.24.33.29a.3.3 0 0 1 .2.39.41.41 0 0 1-.46.33h-1c-.35 0-.76.07-.9.6a3.62 3.62 0 0 0 1.23.09c.25 0 .37.12.35.36a.35.35 0 0 1-.45.31 4 4 0 0 0-1.19 0c-1.14.15-1.14.15-1.93 1.28a3.42 3.42 0 0 0 1.74.1c.2 0 .43 0 .45.24s-.2.37-.41.39H76.2c-.83 0-1.64.13-2 1.23a3.79 3.79 0 0 0 1.5 0l.92-.09a.23.23 0 0 1 .27.23c0 .17-.1.25-.25.29a1.41 1.41 0 0 1-.41.07c-.87 0-1.69.33-2.55.43-.41 0-.41.07-1.16 1.07.56.22 1.11-.11 1.64 0a4.34 4.34 0 0 0 .51 0c.22 0 .26.19.25.37a.26.26 0 0 1-.3.23 6.1 6.1 0 0 0-1.76.12c-.66.13-1.4 0-2 .66.87.14 1.84-.25 2.58.49-.39.37-.7.14-1 .12a3.37 3.37 0 0 0-1.75.16 1 1 0 0 1-.41.1 2 2 0 0 0-1.88.6c1.43 0 2.69-.18 3.94-.34a41.45 41.45 0 0 1 8-.77c.37 0 .69 0 .72-.49a5.06 5.06 0 0 1 1.63-2.93A18.82 18.82 0 0 1 85.28 74c.38-.27.34-.58.35-.9a1.19 1.19 0 0 1 .77-1 .93.93 0 0 1 1.14.16.85.85 0 0 1 .29.94c-.1.43-.41.49-.75.61a5.85 5.85 0 0 0-2.45 1.47 24.59 24.59 0 0 0-2.58 3 1.89 1.89 0 0 0-.43 1.44c.25-.07.36-.29.52-.45a11 11 0 0 1 5.42-2.94 4.3 4.3 0 0 1 1.68 0l1.63.31a3.47 3.47 0 0 0 1.75 0c1.15-.35 1.63.32 1.27 1.37-.24.72-.86 1-1.37.55a.44.44 0 0 1-.12-.15c-.68-1.26-2-1.24-3.2-1.44a5.07 5.07 0 0 0-3.37.52 11.73 11.73 0 0 0-3 2 1.47 1.47 0 0 0-.49.64c.29.16.5 0 .68-.18a5.78 5.78 0 0 1 4.24-1 1.07 1.07 0 0 0 1.19-.44 1 1 0 0 1 1.49 0 1.13 1.13 0 0 1-.3 1.41 1.22 1.22 0 0 1-1.41 0 3.55 3.55 0 0 0-1-.45 3 3 0 0 0-1-.11 5.57 5.57 0 0 0-2.14.69.84.84 0 0 0-.47.36 3.72 3.72 0 0 0 1.37.4 10.51 10.51 0 0 1 3.61 1.7c.41.26.74.48 1.22 0a1.4 1.4 0 0 1 .87-.21 1 1 0 0 1 1 .71 1.26 1.26 0 0 1-.24 1.27 1.3 1.3 0 0 1-1.43.27c-.32-.2-.72-.35-.81-.81a.93.93 0 0 0-.48-.61 12.6 12.6 0 0 0-2.6-1.35 10.86 10.86 0 0 0-2.87-.78c-.23 0-.5-.15-.68.07a.66.66 0 0 0 0 .79 11.1 11.1 0 0 0 1.63 2 3.85 3.85 0 0 0 2.42.93 1 1 0 0 1 .48.13c.32.22.71.41.64.94 0 .21-.09.46-.34.48-.45 0-1.08.31-1.29-.25-.32-.85-1.07-1.07-1.69-1.5a10 10 0 0 1-2.68-3 3.06 3.06 0 0 0 .14 1.83A12.38 12.38 0 0 0 82.6 85q.2.38.42.75a6.6 6.6 0 0 0 .5.68 8.15 8.15 0 0 0 2.69 2.13 3.63 3.63 0 0 0 2.47.42c.68-.14 1.1.12 1.22.63a1.84 1.84 0 0 1-.6 1.61c-.48.27-1.73-.2-1.7-.72a.87.87 0 0 0-.25-.74 2 2 0 0 0-.62-.36 9.93 9.93 0 0 1-2.54-1.56 6.16 6.16 0 0 1-1.34-1.41A9.94 9.94 0 0 1 81.18 82c0-.13 0-.28-.23-.36a3.13 3.13 0 0 0-1 3 8.26 8.26 0 0 0 1 2.76.64.64 0 0 0 .74.39A1.17 1.17 0 0 1 82 90c-.63 0-1.25-.52-1.13-1.12a1.8 1.8 0 0 0-.25-1.31A15.18 15.18 0 0 1 80 86a4.54 4.54 0 0 1 .91-5.26c-.11-.3-.39-.21-.61-.23a18.85 18.85 0 0 0-4.84.29c-1.28.2-2.6.4-3.9.54s-2.6.24-3.93.35c-.16 0-.36 0-.54.19 1.33 1 2.83.06 4.3.4-.55.65-1.28.32-2 .73a5.54 5.54 0 0 0 3.19-.3c-.16.54-.15.54-1.59 1.1a.9.9 0 0 0 1 .41c.49-.07 1-.16 1.48-.19.29 0 .75-.34.83.09s-.44.28-.7.36a6.73 6.73 0 0 0-1.35.31A2.09 2.09 0 0 0 74 86.05a6.24 6.24 0 0 1 .92.24c.23 0 .45 0 .39.36s-.3.24-.51.25-.52-.24-.82-.12c.4 1 .43 1 1.37 1.19.35 0 .72.08 1.07.14s.45.14.41.4-.27.23-.5.19a2 2 0 0 0-1.33-.07c.38.94 1.2 1.09 2 1.2a2.41 2.41 0 0 0 .64-.09.27.27 0 0 1 .32.21c0 .19 0 .39-.2.42-.42.07-.84.08-1.34.13a1.35 1.35 0 0 0 1.44.62c.37 0 .68-.06.71.39s-.34.43-.68.36c0 0-.09 0-.14.08.23.32.62.37.92.56a.44.44 0 0 1 .15.65c-.16.21-.39.13-.59 0s-.41-.44-.72-.49c-.12.09 0 .19 0 .29s.28.51-.08.63-.37-.2-.46-.38a14.09 14.09 0 0 0-1-1.78c0 .37-.09.75-.14 1.12 0 .15-.12.28-.28.26a.32.32 0 0 1-.26-.32 9 9 0 0 1 .08-1.29 1.71 1.71 0 0 0-.71-1.78 3.08 3.08 0 0 0-.19 1.35c0 .14 0 .31-.19.33a.32.32 0 0 1-.36-.33v-1.91a2.22 2.22 0 0 0-.69-1.79 3.39 3.39 0 0 0 0 1.61c0 .18 0 .39-.2.43s-.3-.17-.32-.34a4.87 4.87 0 0 1-.14-1.73c.28-.89-.14-1.35-.84-1.71-.33.15-.25.43-.24.66s.1.5.1.75.19.79-.18.84-.3-.48-.37-.76a10.22 10.22 0 0 1-.29-1.8 1 1 0 0 0-.77-1 4.57 4.57 0 0 0-.27 1.63c0 .17 0 .38-.29.37s-.25-.23-.25-.39v-1a2.26 2.26 0 0 0-.16-1 1.4 1.4 0 0 0-1.24-.69c-.47.1-.24.53-.33.81v.1c-.07.26 0 .72-.34.68s-.19-.47-.15-.72c.2-1.35-.65-2.09-2-2.22a21.86 21.86 0 0 1-3.22-.54 18.5 18.5 0 0 1-3.16-1c-.4-.16-.78-.35-1.19-.55l-1.26-.68c.23.41.46.8.71 1.17s.54.68.82 1a13.2 13.2 0 0 0 1.9 1.68 3 3 0 0 0 .38.23c.31.18.66.46.45.78s-.56 0-.8-.22a2.48 2.48 0 0 0-1.24-.7A8.58 8.58 0 0 0 60 85a13.89 13.89 0 0 0 1.43 1.33c.18.16.29.37.11.56s-.35.1-.51 0c-.47-.33-1-.64-1.5-1.07a3.26 3.26 0 0 0 1.32 2.78c.54.38 1.06.79 1.57 1.21.2.16.42.4.18.66s-.41.07-.6-.08a12.82 12.82 0 0 0-1.37-1 3 3 0 0 0 1.8 3l1.51.62c.26.09.4.25.36.5s-.3.21-.52.14L62.19 93a2 2 0 0 0 1.37 1.47 12.18 12.18 0 0 0 1.35.36c.39.08.58.28.49.62s-.42.11-.65.06l-.46-.12c0 .44.37.62.63.84.11.1.29.12.4.23a.41.41 0 0 1 .06.6c-.13.12-.34.05-.51-.12l-1.55-1.57c-.23.28 0 .51 0 .73l.5 1.42c.1.31.16.72-.2.75s-.4-.35-.39-.66a3.11 3.11 0 0 0-.44-1.53 3.62 3.62 0 0 1-.59-1.6c0-.47-.43-.78-.82-1.23a2.44 2.44 0 0 0 .07 1.38 1.42 1.42 0 0 1 .06.76.25.25 0 0 1-.22.2.32.32 0 0 1-.36-.24c0-.22 0-.45-.07-.67a15.54 15.54 0 0 0-.74-4.15c-.05-.13-.06-.3-.33-.38a2.08 2.08 0 0 0 0 1.26.73.73 0 0 1-.06.63c-.09.12-.2.23-.37.14a.45.45 0 0 1-.22-.25 1.55 1.55 0 0 1 0-.43 10.6 10.6 0 0 0-.2-4c-.17-.49.1-1.08-.3-1.77a6.57 6.57 0 0 0-.18 1.87c0 .22.06.44.06.66a.35.35 0 0 1-.43.37c-.26 0-.23-.29-.21-.46.13-1 0-2.1.15-3.12.15-1.27-.59-2.25-1.09-3.33a3.6 3.6 0 0 0-.07 2 1.85 1.85 0 0 1 .12.64c0 .19-.07.49-.36.45s-.28-.3-.27-.53c.06-1.11-.19-2.22-.19-3.31a2.48 2.48 0 0 0-.5-1.46 11.67 11.67 0 0 0-2.53-2.85c-.34-.25-.67-.52-1-.79s-.6-.59-.88-.89c-.57-.61-1.12-1.26-1.68-1.92.33.92.62 1.85 1 2.76a18.32 18.32 0 0 0 1.26 2.3c.1.17.22.32.31.49s.24.55 0 .69-.41-.22-.55-.41c-.47-.66-.75-1.4-1.34-2.19a5.05 5.05 0 0 0 .74 3.88c.37.5.68 1 1 1.57.15.25.25.56 0 .71s-.45-.18-.57-.39c-.42-.7-.82-1.42-1.22-2.13a.44.44 0 0 0-.4-.28 2.51 2.51 0 0 0 0 1.56 8.73 8.73 0 0 0 1.75 3.15c.09.12.21.24.29.37s.14.47-.08.59-.36-.08-.48-.23c-.24-.32-.44-.66-.7-1s-.31-.55-.7-.64a3.07 3.07 0 0 0 1.21 2.68c.41.33.79.69 1.17 1.05a.32.32 0 0 1 .08.41c-.12.19-.31.17-.49 0-.35-.27-.68-.56-1.1-.91a2.05 2.05 0 0 0 .57 1.6c.22.25.39.48.06.63s-.5-.12-.63-.38c-.2-.43-.38-.87-.58-1.36-.45.21-.17.7-.35 1s-.24.32-.44.26a.38.38 0 0 1-.26-.47c.21-.77.12-1.66.36-2.43a3.09 3.09 0 0 0-.2-2c-.53.21-.36.8-.61 1.1-.12.14-.23.32-.44.21a.42.42 0 0 1-.21-.59c.08-.17.18-.32.25-.48a8.79 8.79 0 0 0 .92-4.74 3.93 3.93 0 0 0-.9 1.14c-.11.2-.32.37-.54.22-.38-.25 0-.43.06-.63a9.73 9.73 0 0 1 .8-1 3.87 3.87 0 0 0 .81-3.85c-.69.52-.91 1.31-1.38 1.91-.13.16-.19.39-.32.55s-.3.37-.55.17-.14-.41 0-.59a2.5 2.5 0 0 1 .23-.23A10.08 10.08 0 0 0 49 74.6a1.34 1.34 0 0 0 .14-1 15.61 15.61 0 0 0-1.07-3.29c-.78-1.47-1.47-3-2.19-4.44a1.76 1.76 0 0 0-.44-1c-.31.6 0 .87.47 1-.58.8-.17 1.67 0 2.51a11.66 11.66 0 0 1 .35 1.76c0 .21-.06.47-.36.43s-.24-.25-.26-.44a3 3 0 0 0-.54-1.65 10.69 10.69 0 0 0-.1 3.21c.11.63.24 1.28.38 1.91.07.25 0 .49-.22.53s-.37-.21-.38-.44a10 10 0 0 0-.27-1.85c-.39 0-.4.35-.5.58a5.85 5.85 0 0 0-.16 3.77 5.53 5.53 0 0 1 .2.66c0 .23 0 .52-.24.52s-.33-.3-.34-.52a6.43 6.43 0 0 0-.41-2 2.61 2.61 0 0 0-.17 3.32c.18.26.3.57.49.82s.55.77.16 1-.49-.38-.66-.64a14.56 14.56 0 0 1-.72-1.47 3.77 3.77 0 0 0-.15 2c0 .19.12.38.16.57a.32.32 0 0 1-.26.42c-.26 0-.3-.19-.36-.37a5.16 5.16 0 0 1-.08-1.61c0-.18.1-.37-.15-.59-.36.24-.73.5-1.11.74a.31.31 0 0 1-.49-.12.25.25 0 0 1 .1-.38c1.34-.39 1.62-1.58 2-2.73-.24-.3-.38 0-.54.07s-.51.47-.73 0 .24-.46.47-.58a3.42 3.42 0 0 0 1.68-1.7 8.57 8.57 0 0 1 .74-1.32c-.54.1-.75.49-1.1.63-.13 0-.27.13-.4 0a.38.38 0 0 1 0-.52 1.19 1.19 0 0 1 .33-.27c2.12-1 2.34-3 2.48-5.29a4 4 0 0 0-1 1.31 3.33 3.33 0 0 1-.35.54.32.32 0 0 1-.49 0 .31.31 0 0 1 0-.41 9.67 9.67 0 0 0 1.39-2 4.35 4.35 0 0 0 .51-1.88c.21-2.1-.49-4-1-5.92-.11-.46-.26-.92-.35-1.39a2.19 2.19 0 0 1 .19-1.64c.09.53.13.87.21 1.21a13.75 13.75 0 0 0 2 5.15 3.16 3.16 0 0 0 2.59 1.53c.21 0 .48-.06.5.24s-.27.36-.54.37-.69-.24-1.14-.06a5.22 5.22 0 0 0 2.09 2 2.08 2.08 0 0 0 1.57 0c.33-.07.81-.37 1 0 .22.53-.49.33-.68.6l-.13.12a1.14 1.14 0 0 0 1 .45.72.72 0 0 1 .57.23.48.48 0 0 1 .1.59c-.11.18-.33.11-.49.05-.48-.19-.92-.43-1.38-.63l-1.44-.58a5.24 5.24 0 0 0 1.08 1.69c.15.16.36.26.38.5s0 .45-.27.53-.35-.08-.43-.25c-.41-.84-1.07-1.53-1.43-2.37a7.9 7.9 0 0 0-1.39-1.91c-.17.36 0 .61.19.87s.33.31.3.57-.09.37-.29.4a.28.28 0 0 1-.33-.23c-.24-1.1-1-2-1.31-3-.17-.3 0-.73-.45-1 0 .35.03.72.47.9z" fill="#fff" stroke="#fff" stroke-miterlimit="10" stroke-width=".25" fill-rule="evenodd"/><path d="M54.39 54.21a7.11 7.11 0 0 0 1.13.25 7.62 7.62 0 0 0 1.17 0 4.9 4.9 0 0 0 2.74-.88 3.35 3.35 0 0 0 .84-.84 2.29 2.29 0 0 0 .38-1.16.83.83 0 0 0-.33-.82 1.65 1.65 0 0 0-1.4-.27c-.29.09-.58.18-.86.29s-.56.22-.84.35a7.58 7.58 0 0 0-1.58 1A10.08 10.08 0 0 1 54 53.28a.84.84 0 0 1-1.07 0 2.38 2.38 0 0 0-.5-.26 7.26 7.26 0 0 0-2.33-.71.58.58 0 0 1 .23-.08 6.83 6.83 0 0 0 2.73-1 4.17 4.17 0 0 0 1.47-1.59.9.9 0 0 0-.13-1.14 1.34 1.34 0 0 0-1.24-.23c-.27.08-.53.18-.79.28s-.5.22-.75.35a7.8 7.8 0 0 0-1.41.93 12.18 12.18 0 0 1-3 1.71 1.94 1.94 0 0 1-2.21-.65 5.84 5.84 0 0 1-1.44-2.55 3.69 3.69 0 0 0-.7-1.53.63.63 0 0 0-.7-.18c-.27.15-.15.38-.11.58v.12a11 11 0 0 0 .5 1.28 6.43 6.43 0 0 0 .69 1.17 9.88 9.88 0 0 0 1.91 2 1.56 1.56 0 0 1 .47.52L47 55c.32.59.64 1.2 1 1.8.17.3.35.59.53.89.09.14.18.29.28.43l.31.41A3.78 3.78 0 0 0 51 59.92c.73.22 1.21 0 1.17-1a1.48 1.48 0 0 0 0-.19 4.43 4.43 0 0 0-1.17-2.4c-.14-.17-.28-.35-.43-.52l-.43-.52c-.29-.34-.59-.67-.91-1s-.65-.6-1-.88a10.86 10.86 0 0 0-1.08-.81.15.15 0 0 1-.1-.21c.57.08 1.13.12 1.7.15s1.14 0 1.7.1a6.44 6.44 0 0 1 1.74.56.77.77 0 0 1 .54.83c0 .75 0 1.51-.08 2.28a11.34 11.34 0 0 0 .22 3.39 3.13 3.13 0 0 0 1.24 1.7.84.84 0 0 0 .86.21 1.14 1.14 0 0 0 .58-.75 2.82 2.82 0 0 0 .1-1.38 15.37 15.37 0 0 0-1.3-3.69 8.1 8.1 0 0 1-.54-1.3 4.19 4.19 0 0 1 .64.71c.09.12.17.24.25.37s.16.23.23.35a4.14 4.14 0 0 1 .91 2.42A7.1 7.1 0 0 0 56 59.8a11.4 11.4 0 0 1 .18 1.43 6.08 6.08 0 0 0 .82 2.65 1.91 1.91 0 0 0 .49.63.68.68 0 0 0 1.14-.19 2.06 2.06 0 0 0-.06-1.93c-.16-.36-.33-.73-.52-1.09a9.69 9.69 0 0 0-.6-1 3 3 0 0 1-.54-1c.37.44.78.85 1.19 1.25.21.2.42.41.62.62s.41.4.6.62a1.49 1.49 0 0 1 .34.63 14 14 0 0 0 .67 1.73c.13.28.27.57.41.84l.45.82a2 2 0 0 0 1.13.9c.65.23 1 0 1-.69a2.17 2.17 0 0 0-.44-1.2 10.29 10.29 0 0 0-.82-1c-.3-.32-.62-.62-1-.92a2.06 2.06 0 0 1-.67-.82c.32.11.63.23.92.32l.45.12a2.38 2.38 0 0 0 .46 0 .9.9 0 0 1 .85.52 8 8 0 0 0 1.95 2.49 1.74 1.74 0 0 0 .62.35c.32.08.51-.07.52-.4a1.79 1.79 0 0 0-.29-1 5.17 5.17 0 0 0-1-1.25c.15-.09.23 0 .32 0a4.87 4.87 0 0 1 1.54 1 4.64 4.64 0 0 0 .69.5 1.65 1.65 0 0 0 .83.2c.53 0 .77-.35.56-.84a1.55 1.55 0 0 0-.69-.76 20.1 20.1 0 0 0-2.44-1.15c.15-.19.37-.12.55-.18a1.72 1.72 0 0 0 .93-.49.81.81 0 0 0 .26-.72.63.63 0 0 0-.59-.46 1.44 1.44 0 0 0-.83.16l-1.4.77a8.64 8.64 0 0 1-1.92.83 1.24 1.24 0 0 1-1.14-.15 1.78 1.78 0 0 1 .7-.08 3.68 3.68 0 0 0 1.76-.45 1 1 0 0 0 .58-1 1.12 1.12 0 0 0-1.23-1 2.23 2.23 0 0 0-.78.22 28.79 28.79 0 0 0-2.47 1.48.66.66 0 0 1-.81 0 7.48 7.48 0 0 1-.81-.68q-.39-.36-.75-.75c-.24-.26-.46-.53-.68-.81a4.56 4.56 0 0 1-.31-.42c-.1-.14-.19-.3-.28-.45s-.2-.2-.07-.37l.61.29.64.23c.44.14.87.26 1.31.37a4.78 4.78 0 0 0 1.24.15 2.47 2.47 0 0 0 1.23-.43 1.48 1.48 0 0 0 .72-1.32 1 1 0 0 0-.78-1 1.67 1.67 0 0 0-.77-.08 7.09 7.09 0 0 0-1.52.35c-.49.18-1 .35-1.52.49a3.87 3.87 0 0 1-1.82-.11c-.1 0-.15-.11-.19-.2a12.12 12.12 0 0 0-.7-1.06c-.25-.36-.53-.72-.82-1.11a2.92 2.92 0 0 1 .37.01zM65.73 63a.27.27 0 0 1 .35.14 6.58 6.58 0 0 1 1 .62c.09 0 .18.09.26 0s0-.17-.07-.26-.25-.1-.26-.3a2.74 2.74 0 0 1 1.36.87c.09.12.22.26.1.43a.4.4 0 0 1-.44.11 1.28 1.28 0 0 1-.33-.11 5.13 5.13 0 0 1-1.65-1.35.47.47 0 0 1-.32-.15zm-8.61-10.32c-.12-.19-.28-.09-.4 0-.54.25-1.1.39-1.63.69a.81.81 0 0 1-.58.13 21 21 0 0 1 2-1.58 8.16 8.16 0 0 1 1.07-.61 7.19 7.19 0 0 1 1.17-.44 1.93 1.93 0 0 1 .86 0c.8.16.93.94.4 1.76a3.47 3.47 0 0 1-2.1 1.37 5.22 5.22 0 0 1-1.56.2 6.65 6.65 0 0 1-.78-.06l-.76-.14a1.1 1.1 0 0 1-.16-.12c.84-.48 1.68-.69 2.47-1.2zm-9.08 2c.44.68.79 1.42 1.28 2.17a5.06 5.06 0 0 0-.62-1.6 17.51 17.51 0 0 0-1.23-1.92 7.88 7.88 0 0 1 .87.65 9.51 9.51 0 0 1 .73.67q.6.6 1.14 1.26a12.32 12.32 0 0 1 1 1.37 3.85 3.85 0 0 1 .58 1.6c.08.72-.19 1-.89.74a3.93 3.93 0 0 1-1.53-1.21 5.29 5.29 0 0 1-.47-.59c-.14-.21-.27-.43-.39-.64-.24-.44-.47-.89-.72-1.32s-.5-.89-.71-1.36l-.62-1.5a.32.32 0 0 1 0-.33c.25.34.54.64.81.95l.41.48a3.81 3.81 0 0 1 .32.53zm.91-3a4.38 4.38 0 0 0 1.3-.6c.43-.28.92-.41 1.36-.66.09 0 .21-.1.17-.21s-.18-.08-.28 0a24.54 24.54 0 0 1-3.07 1.36.43.43 0 0 1-.32 0A2.53 2.53 0 0 1 49 51c.86-.46 1.56-1.17 2.38-1.67a8.21 8.21 0 0 1 1.79-.81.92.92 0 0 1 .94.13c.34.28.36.63.07 1.06a5.07 5.07 0 0 1-2.86 2 6.82 6.82 0 0 1-1.54.27h-1.56a1.77 1.77 0 0 1 .78-.39zm4.63 6a9.47 9.47 0 0 0 .26 1.31c.25-.14.2-.31.17-.48a15.93 15.93 0 0 1-.21-2.08 1.59 1.59 0 0 1 .07-.7 6.3 6.3 0 0 1 .72 1.51 16.58 16.58 0 0 1 .63 1.8 3 3 0 0 1 0 1.86c-.19.56-.5.67-1 .33a2.76 2.76 0 0 1-1.1-1.7 10.79 10.79 0 0 1-.19-1.5v-1.52c0-.52.07-1.05.1-1.56a1.26 1.26 0 0 1 .15-.6 19.07 19.07 0 0 1 .4 3.24zm6.34-.13v-.12a9.11 9.11 0 0 0-1.57 0 4 4 0 0 1-1.58-.17 4.3 4.3 0 0 0 .92-.19c.3-.09.61-.2.9-.31a10 10 0 0 1 1.8-.54 1.87 1.87 0 0 1 .82 0 .8.8 0 0 1 .6.73 1 1 0 0 1-.49 1 2.75 2.75 0 0 1-.76.35 1.92 1.92 0 0 1-.79.07 8.48 8.48 0 0 1-2.18-.57zm-2.68 5.29c.32-.3.33-.3.24-.67a18.17 18.17 0 0 1-.5-1.85 3.22 3.22 0 0 1 .57.8 8.45 8.45 0 0 1 .9 2 3.35 3.35 0 0 1 .08.54.65.65 0 0 1-.34.72c-.35.15-.58-.1-.72-.33a4.66 4.66 0 0 1-.95-2.67 2.49 2.49 0 0 0-.09-.6v-.48c0-.16 0-.12.14-.16a14.61 14.61 0 0 1 .67 2.61zm4.25-2.22a4.54 4.54 0 0 1 1.46-.8.84.84 0 0 1 1.19.45.68.68 0 0 1-.36 1 3.66 3.66 0 0 1-1.37.36 5.79 5.79 0 0 1-1.3 0 4.19 4.19 0 0 1 .9-.37 3.55 3.55 0 0 0 .71-.34c-.71-.07-1.35.35-2.07.37a6.76 6.76 0 0 0 .84-.76zm1.3 4.66a2 2 0 0 1 .19.45.69.69 0 0 1-.08.7c-.2.2-.42 0-.62-.11a1.23 1.23 0 0 1-.65-.45 13.24 13.24 0 0 1-.89-1.66c-.25-.59-.49-1.19-.73-1.79.34.05.37.29.46.49l.53 1.02c.17.37.36.73.54 1.09.09.15.16.49.39.37s0-.34-.1-.5a8.84 8.84 0 0 0-.36-.84c-.06-.13-.13-.27-.19-.41s-.12-.28-.17-.43c.32.31.66.58 1 .91a6 6 0 0 1 .68 1.07zm1.9-.84c.07.08.17.21.29.07s0-.22-.06-.31a3.44 3.44 0 0 1-.67-.83.34.34 0 0 1 .38.1 5.2 5.2 0 0 1 .66.67 3.5 3.5 0 0 1 .49.81 2 2 0 0 1 .1.35v.23a.21.21 0 0 1-.28 0 6.05 6.05 0 0 1-.73-.61l-.33-.34c-.1-.12-.19-.25-.29-.38s-.18-.31-.27-.47l.06-.07c.19.16.41.44.65.69zM66 61.29c-.39-.2-.67.24-1.07.21a6.72 6.72 0 0 1 1.5-.86.51.51 0 0 1 .49 0c.29.14.32.33.07.59a1.49 1.49 0 0 1-.66.39 2.65 2.65 0 0 1-.92.14c.12-.24.39-.25.59-.47zM42.47 47a3 3 0 0 1 .71 1.63 3 3 0 0 1-.71-1.63zM23.59 60.54a4.09 4.09 0 0 0-1.14.58 1.63 1.63 0 0 0 .18 2.67c1 .79 2.06 1.46 3.2.93.11 0 .22 0 .3.13a4.33 4.33 0 0 0 .05 2.93c.5 1.49 1.87 2.22 3.05 1.58A3.46 3.46 0 0 0 30.69 68c.14-.26.24-.6.63-.72.23.67.45 1.28.63 1.89A4.31 4.31 0 0 0 33.27 71a1.54 1.54 0 0 0 2.61-.6 4.79 4.79 0 0 0 .18-2c0-.32-.19-.68 0-1.05a5.36 5.36 0 0 0 3.07 1.88c.79.18 1.2-.13 1.22-1a4 4 0 0 0-.24-1.35 8.14 8.14 0 0 0-1.6-2.69 7.49 7.49 0 0 1-.95-1.31 3 3 0 0 1 1 .72 7.21 7.21 0 0 0 3.73 1.76c.41.07.83.15 1.08-.27a1.26 1.26 0 0 0-.08-1.09 4.8 4.8 0 0 0-.3-.48 13.16 13.16 0 0 0-1.74-2.24l-1-1c-.34-.32-.69-.62-1.06-.92a10.58 10.58 0 0 0-3.79-2.18 1.25 1.25 0 0 1-1-.93 3.07 3.07 0 0 0-.72-1.17 2.06 2.06 0 0 1-.58-1.2 6 6 0 0 0-.33-1.33c-.1-.25-.3-.62-.66-.46s-.27.5-.17.79.31.54.41.83c.26.67.16.92-.51 1a1.7 1.7 0 0 0-1.52 1c-.19.46-.52.43-.9.3a20.1 20.1 0 0 0-4.54-.68 3.32 3.32 0 0 0-2.42.73 1.26 1.26 0 0 0-.46 1.32 2.57 2.57 0 0 0 .9 1.59 4.94 4.94 0 0 0 2.1.93c-.66.3-1 .49-1.41.64zM27 64.8a4.91 4.91 0 0 1 1.33-1.24A7.66 7.66 0 0 0 31 61c.12-.2.22-.48.57-.48A4.16 4.16 0 0 1 31 63a9.37 9.37 0 0 1-2.17 3.11c-.68.58-.94 1.57-1.69 2.09a2.73 2.73 0 0 1-.14-3.4zm3-5.49a31.14 31.14 0 0 0-3.31 2.53 6.72 6.72 0 0 1-2.41 1.33c-.14 0-.35 0-.41.1-.35.5-.67.39-1-.15s-.43-1 0-1.4a3.62 3.62 0 0 1 1.48-.83c2-.72 4-1.58 6-2.47a9.1 9.1 0 0 1 .94-.27A4.92 4.92 0 0 1 30 59.31zm9.85 4.54c-.49-.35-1-.72-1.42-1.12a15.46 15.46 0 0 1-1.29-1.27c-.83-.88-1.61-1.82-2.36-2.79a1.64 1.64 0 0 1-.4-.88 28.8 28.8 0 0 1 4.37 3.34l4 3.61a4.67 4.67 0 0 1-2.93-.89zm-6.11 4.51a10.55 10.55 0 0 0 .88 2.12c.07.14.18.28 0 .41a.35.35 0 0 1-.41 0 3 3 0 0 1-1.59-1.62 13.65 13.65 0 0 1-.87-2.62 5.92 5.92 0 0 1 .1-2.65c.16-.58.22-1.19.33-1.78h.12l.7 3.09c.11.52.23 1 .37 1.53zm-3.95-10.84a17 17 0 0 1-5 0 3 3 0 0 1-1.85-.95 3.59 3.59 0 0 1 2.24-.64 22 22 0 0 1 5.38 1c.06 0 .11.1.18.17-.24.33-.61.33-.95.42zm8.4 7.06a7.34 7.34 0 0 1 1.46 2.5c.1.35.35.72 0 1.15a20.41 20.41 0 0 1-2.38-3l-.9-1.19c-.3-.4-.57-.83-.83-1.25A8.72 8.72 0 0 1 34.43 60c.68.79 1.31 1.57 1.92 2.34.31.38.6.78.91 1.15zm-2.89 5.5a8.32 8.32 0 0 1-1.52-3.24c-.11-.37-.22-.76-.31-1.15s-.15-.81-.2-1.22a15.71 15.71 0 0 1-.16-2.3c1.69 2.64 2.83 6.37 2.19 7.91zM36.55 67a9.28 9.28 0 0 1-.78-1.27 17 17 0 0 1-.9-1.86 20.74 20.74 0 0 1-1.16-3.47 24.61 24.61 0 0 0 2.35 4.15c.93 1.3 1.93 2.55 2.87 3.85a3.08 3.08 0 0 1-2.38-1.4zm-10.94-2.8a1.1 1.1 0 0 1-1.17 0 69 69 0 0 1 6.22-4.54 10.52 10.52 0 0 1-5.05 4.55zm2.31 4.7c.52-1.86 1.95-2.92 3.07-4.58-.37 3.6-1.19 4.91-3.07 4.59zm-5.2-11.09c.88-.29 1.73.57 2.59.35s1.68.26 2.56.23c-1.87 1.41-3.99 1.18-5.15-.57zm13.35.3a16.52 16.52 0 0 1 6 5c-2.16-1.43-3.9-3.39-6-4.99zm-3.54-2.61c.38.15.87-.1 1.17.43.2.36.17.57-.21.62-.8.1-1.58-.2-2.55-.17.55-1.03.8-1.17 1.59-.87z" fill="#fff" stroke="#fff" stroke-miterlimit="10" stroke-width=".25" fill-rule="evenodd"/><path d="M271.5 34.46a15.5 15.5 0 0 1-2.23 3.59c-.22.25-.43.5-.65.74.28-.11.56-.21.85-.3a29.44 29.44 0 0 0 2.1-3c.63-1 1.55-1.37 2.5-.65.18.13.4.5.61.18s-.21-.38-.38-.55h-.07c-.18-.19-.6-.19-.49-.59a1.2 1.2 0 0 1 1-.69 1.92 1.92 0 0 1 .8.28c.25.14.49.29.74.42s.29.18.41 0 0-.29-.17-.39a4.57 4.57 0 0 1-1.14-.92.85.85 0 0 1 1.07-.16A11.34 11.34 0 0 0 278 33c.24.07.58.41.73.06s-.33-.38-.55-.51-.42-.16-.61-.26-.43-.16-.4-.49a1.15 1.15 0 0 1 1.67.13c.34.38.89.45 1.34.68.14.07.32.12.4-.09s-.1-.27-.24-.35a3 3 0 0 1-1.18-.75 1.83 1.83 0 0 1 1.64.3c.46.31.92.64 1.4.95a.27.27 0 0 0 .4-.11c.07-.14-.06-.22-.15-.29-.3-.25-.69-.4-.91-.8a1.49 1.49 0 0 1 1.63.34 8.49 8.49 0 0 0 .9.68.26.26 0 0 0 .35 0 .23.23 0 0 0-.06-.33l-.74-.65a11.79 11.79 0 0 1 1.73.17c.16 0 .42.1.48-.15s-.22-.32-.41-.38-.19 0-.2-.15c.19-.21.46-.19.69-.29s.36-.2.29-.42a.4.4 0 0 0-.55-.23c-.28.12-.5.39-.84.4v-.14c.21-.22.45-.46.06-.68s-.45.05-.62.33-.48.81-1.13.76c.2-.39.39-.71.54-1 .08-.18 0-.3-.22-.36a.23.23 0 0 0-.3.14 2.17 2.17 0 0 1-.24.51c-.46.54-.94 1.07-1.82.9.08-.47.41-.68.67-.94s.29-.29.09-.46-.36 0-.49.11-.4.49-.61.73c-.55.61-.58.62-1.52.47.05-.27.35-.35.47-.57s.22-.34 0-.51-.32 0-.45.14-.45.37-.6.6a1.82 1.82 0 0 1-1.67.74 5 5 0 0 1 .37-1.17c.05-.23.44-.55 0-.69s-.34.36-.45.59a13.07 13.07 0 0 0-.51 1.22.79.79 0 0 1-.76.59c.19-1.34.19-1.34-.16-1.69a5.19 5.19 0 0 1-1.14 2.59c0-.7.52-1.14.26-1.83-.89 1-.77 2.58-2.09 3.21-.11-.24 0-.37.07-.51.9-2.16 1.82-4.31 2.7-6.47a15.21 15.21 0 0 1 2.12-3.9c.12-.16.2-.41.5-.35a4.09 4.09 0 0 0 3.58 3.16c.5.08 1 .17 1.5.21a1.56 1.56 0 0 1 1.09.44 1 1 0 0 0 1.4-.23 1 1 0 0 0-.39-1.38 1.06 1.06 0 0 0-1.47.4.6.6 0 0 1-.67.37 8.17 8.17 0 0 1-2.58-.56 2.76 2.76 0 0 1-1.71-2.23.31.31 0 0 1 .4 0 9.63 9.63 0 0 0 4.24.84 6 6 0 0 0 1.73-.24 9.28 9.28 0 0 0 2.52-1.05c.39-.24.77-.46 1.26 0s1.4-.32 1.49-.8a1.62 1.62 0 0 0-.8-1.3c-.44-.19-.87 0-1.16.53a3.8 3.8 0 0 1-1.69 1.56 8.6 8.6 0 0 1-6.18.6 3 3 0 0 1-1.49-.75 10.79 10.79 0 0 0 3.71-.63c.66-.24 1.25-.68 2.05-.48.54.13.67-.48.91-.83.12-.19 0-.36-.16-.49-.35-.32-.72-.13-1.07 0a.85.85 0 0 0-.36.29c-1.17 1.43-2.81 1.53-4.46 1.61a.61.61 0 0 1-.63-.35c-.08-.23.17-.39.31-.55a11.9 11.9 0 0 1 4.75-3.13 1 1 0 0 1 .73 0c.4.17.75-.06 1.09-.19a1.27 1.27 0 0 0 .65-1.18 1.07 1.07 0 0 0-.81-.85 1 1 0 0 0-1.16.43c-.17.23-.39.47-.36.76.05.58-.31.72-.75.9a9.41 9.41 0 0 0-3.39 1.84 4 4 0 0 1-1.06.86.71.71 0 0 1 0-.53 3.67 3.67 0 0 1 2.27-3.28 1.2 1.2 0 0 0 .81-1.08 1 1 0 0 0-.92-.91 1 1 0 0 0-.89 1.13 1 1 0 0 1-.35 1.11 5.21 5.21 0 0 0-1.53 3.77c0 .19.07.45-.22.6a1.16 1.16 0 0 1-.24-.67 9.3 9.3 0 0 1 .08-3.2 4.79 4.79 0 0 1 1.54-2.87c.89-.81 1.7-1.82 3.11-1.72h.19a.79.79 0 0 0 .45-1.32c-.59-.79-1.44-.75-1.89.3a3.71 3.71 0 0 1-1.07 1.36 8.17 8.17 0 0 0-2.25 2.4 8.67 8.67 0 0 0-.66 5.54c0 .19.15.38.07.6a1.6 1.6 0 0 1-.91-1 18.69 18.69 0 0 1-1-3.34 4.66 4.66 0 0 1 .2-2.57c.09-.32.22-.59-.07-.86a.89.89 0 0 0-1-.19 1 1 0 0 0-.8.83.92.92 0 0 0 .43 1c.26.16.54.26.55.68a13.83 13.83 0 0 0 .67 3.24A4.16 4.16 0 0 0 277 22c.4.27.22.51 0 .78a29.94 29.94 0 0 0-3.17 6.54c-.43 1.06-.85 2.11-1.4 3.25a1.8 1.8 0 0 1 .31-1.73.74.74 0 0 0 .09-.36 3.14 3.14 0 0 1 .63-1.46c.14-.22.46-.37.34-.82-.92.27-1 1.21-1.51 1.84-.26-.74.16-1.27.34-1.85a4.93 4.93 0 0 1 .7-1.44.21.21 0 0 0-.05-.33c-.14-.09-.3-.14-.41 0s-.13.3-.23.42c-.32.37-.3 1-.72 1.31-.47-1-.49-1-.35-1.36a18.91 18.91 0 0 1 .83-2.21 2.13 2.13 0 0 0 .14-.35.24.24 0 0 0-.12-.32.23.23 0 0 0-.32.11c-.13.26-.24.52-.36.77a3.8 3.8 0 0 1-.64 1.23c-.75-.71-.47-1.4-.09-2.09.2-.36.42-.7.61-1.07a.31.31 0 0 0-.12-.48c-.23-.11-.33.08-.41.26a3.3 3.3 0 0 1-.91 1.37c-.56-1.08-.56-1.08-.14-2.06a4 4 0 0 1 .58-1c.14-.15.18-.35 0-.48s-.35-.06-.48.14a3.63 3.63 0 0 1-.67 1c-.38-.33-.23-.66-.07-1s.32-.54.48-.81a.34.34 0 0 0 0-.5.32.32 0 0 0-.44 0c-.11.09-.18.28-.41.16 0-.26-.05-.54-.11-.82s-.21-.22-.37-.21a.32.32 0 0 0-.28.23 1.12 1.12 0 0 0 0 .65c.09.29.26.58.11.9-.27.12-.5-.05-.75-.06s-.26 0-.32.1.06.3.2.36.37.11.54.2c.44.25.85.53.78 1.13a.42.42 0 0 1-.36.12c-.24 0-.47 0-.49.28s.23.25.4.29c.85.21.91.29 1 1.38h-.65a.33.33 0 0 0-.2.17.25.25 0 0 0 .15.31.82.82 0 0 0 .26.1c.89.06 1.22.65 1.39 1.41-.26.16-.51 0-.76 0s-.26 0-.28.18a.31.31 0 0 0 .15.32 1.73 1.73 0 0 0 .45.1c1.14.18 1.29.37 1.26 1.61-.36.08-.67-.14-1-.16a.25.25 0 0 0-.27.21.26.26 0 0 0 .13.31c.28.19.62.11.92.19a1 1 0 0 1 .8 1.25c-.13.52-.58.2-.88.28a1.89 1.89 0 0 1-.47 0c-.17 0-.41-.13-.43.16a.35.35 0 0 0 .36.37c.38 0 .76.06 1.13.07s.41.07.41.3a7.25 7.25 0 0 1-.35 3.27z" fill="#fff" stroke="#fff" stroke-miterlimit="10" stroke-width=".25"/></svg>